<?xml version="1.0" standalone="no"?>
<!DOCTYPE svg PUBLIC "-//W3C//DTD SVG 1.1//EN" "http://www.w3.org/Graphics/SVG/1.1/DTD/svg11.dtd" >
<svg xmlns="http://www.w3.org/2000/svg">
<metadata></metadata>
<defs>
<font id="signpainterhousescript" horiz-adv-x="411" >
<font-face units-per-em="2048" ascent="1638" descent="-410" />
<missing-glyph horiz-adv-x="450" />
<glyph horiz-adv-x="2048" />
<glyph horiz-adv-x="2048" />
<glyph unicode="&#xd;" horiz-adv-x="681" />
<glyph unicode=" "  horiz-adv-x="450" />
<glyph unicode="&#x09;" horiz-adv-x="450" />
<glyph unicode="&#xa0;" horiz-adv-x="450" />
<glyph unicode="!" horiz-adv-x="649" d="M121.5 86q3.5 41 30.5 68q23 25 59.5 10t56.5 -58q33 -70 -14 -131q-18 -25 -55 -15.5t-58 44.5q-23 41 -19.5 82zM289 410q63 170 196 428t244 422q12 18 27.5 17t23.5 -22q49 -109 -61 -309q-254 -455 -389 -751q-14 -29 -35 -9q-63 68 -6 224z" />
<glyph unicode="&#x22;" horiz-adv-x="651" d="M328 887q31 86 95 216t112 187q29 37 47 2q27 -51 -17 -129q-106 -186 -174 -276q-27 -37 -49 -33q-25 2 -14 33zM432 829q47 82 136 209t143 179q16 16 32.5 13t20.5 -20q10 -57 -41 -129q-95 -131 -234 -266q-39 -39 -53 -27q-20 14 -4 41z" />
<glyph unicode="#" horiz-adv-x="1044" d="M32 304q-3 7 5 18q33 51 166 71q37 6 92 13q55 127 149 305q-104 -2 -213 -13q-14 -2 -20 7.5t4 19.5q35 45 168 66q41 6 109 12q104 193 178 311q25 43 39 4q23 -59 -56 -231q-6 -14 -19 -42t-18 -36q92 6 191 6q119 213 188 309q29 39 39 -2q20 -68 -59 -225 q-29 -53 -43 -82q121 0 186 -8q43 -6 19 -31q-59 -61 -232 -61h-28q-131 -233 -162 -291q125 2 223 -4q45 -4 18 -31q-63 -63 -229 -63h-65q-88 -162 -150 -293q-12 -25 -29 0q-29 49 21 178q23 59 49 113q-68 0 -191 -5q-70 -139 -126 -262q-12 -27 -29 0q-29 49 16 179 q14 41 31 77q-137 -8 -201 -14q-18 -2 -21 5zM410 414q59 4 190 8q66 135 152 293h-185q-25 -47 -157 -301z" />
<glyph unicode="$" horiz-adv-x="718" d="M59 399q-18 27 13 33q66 14 131 -35q12 -8 40.5 -31.5t44 -35t44 -23.5t59.5 -14q51 -4 80 24q31 31 -8 64q-16 14 -95 58t-129.5 93.5t-50.5 108.5q2 121 92.5 221.5t206.5 149.5q52 20 107 10q66 113 123 209q20 37 39 4q31 -51 -31 -182q-33 -66 -41 -80 q43 -37 61 -86q16 -23 5 -70t-22 -73.5t-35.5 -77t-37.5 -78.5q-8 -18 -15 -21.5t-30 8.5q-80 49 -32 170q6 16 18 40t20.5 43.5t16.5 39t7 33.5t-11 23q-20 16 -91 -19t-137.5 -107.5t-70.5 -146.5q-2 -35 33.5 -67.5t101 -69.5t84.5 -51q43 -37 37 -85t-54 -99 q-37 -41 -102 -56.5t-143 4.5q-20 -39 -53 -107.5t-44 -86.5q-14 -27 -28 -6q-33 45 8 151q6 14 16.5 42t16.5 42q-78 45 -144 137z" />
<glyph unicode="%" horiz-adv-x="1220" d="M303 651q-96 135 35 361q49 86 120.5 141t143.5 57q39 2 60.5 -9t46.5 -48q68 -100 207 -109.5t206 70.5q49 51 56 8q16 -92 -103 -231q-33 -39 -153.5 -177.5t-207.5 -240.5t-196.5 -238.5t-175.5 -232.5q-23 -33 -35 4q-25 70 47 184q68 106 251.5 332t373.5 439 q-106 -6 -197 53q0 -25 -2 -39q-14 -115 -97 -245t-181 -157q-121 -33 -199 78zM373.5 772q-17.5 -88 11.5 -115q29 -29 91.5 12.5t117.5 137.5q57 98 79 190.5t-3 112.5q-31 31 -102.5 -23.5t-127.5 -144.5q-49 -82 -66.5 -170zM725 41q-100 137 27 358q51 90 118.5 147.5 t137.5 61.5q68 6 110 -53q4 -6 34 -37t37 -58.5t3 -80.5q-8 -115 -88 -248t-176 -162q-123 -37 -203 72zM790.5 161q-14.5 -89 14.5 -112q35 -27 94 15t112.5 140.5t72 193t-6.5 110.5q-29 29 -99.5 -25.5t-123.5 -146.5q-49 -86 -63.5 -175z" />
<glyph unicode="&#x26;" horiz-adv-x="1071" d="M65.5 163q-14.5 99 28.5 193.5t135.5 174t210.5 112.5q-115 39 -121 160q-6 137 114 260t243 162q72 31 148.5 27.5t140.5 -58.5q66 -55 75 -110.5t-30 -131.5q-55 -117 -84 -198q-10 -27 -43 -11q-39 20 -53.5 68.5t8.5 128.5q10 29 25.5 60.5t25.5 52t18 40t7 33 t-11 23.5q-31 31 -140.5 -20.5t-206.5 -155t-91 -197.5q4 -57 42 -75.5t107 -16.5q121 2 152 -86q10 -25 -23 -29q-227 -18 -392 -139t-169 -268q-2 -63 35 -106.5t102 -47.5q86 -6 197 69t174 214q-92 -16 -94 -17q-145 -14 -190 82q-14 33 20 33q70 -2 217.5 31t202.5 37 q135 8 184 -99q6 -16 1 -25t-21 -7q-84 10 -207 -13q25 -98 -70 -221q-61 -80 -155.5 -132t-210 -49t-207.5 83q-80 70 -94.5 169z" />
<glyph unicode="'" horiz-adv-x="493" d="M328 899q37 88 106.5 218t114.5 186q35 41 51 0q20 -53 -22 -125q-101 -172 -189 -285q-25 -33 -53 -29q-18 2 -8 35z" />
<glyph unicode="(" horiz-adv-x="466" d="M111 -18q-61 365 95.5 741.5t502.5 593.5q33 20 39 -14q18 -111 -142 -252q-215 -193 -329.5 -497t-86.5 -671q2 -12 -6 -15t-16 3q-43 27 -57 111z" />
<glyph unicode=")" horiz-adv-x="501" d="M-100 -116q-2 7 8 16q276 233 416.5 545.5t128.5 592.5q-8 205 82 275q28 22 36 -17q57 -262 -6 -542.5t-195 -485.5t-294 -325q-90 -66 -162 -66q-12 0 -14 7z" />
<glyph unicode="*" horiz-adv-x="749" d="M287 905q12 59 98 90q84 29 94 31q-68 109 -102 170q-16 31 16 35q70 6 119 -76q4 -8 19.5 -28.5t25.5 -36.5q57 113 133 235q10 16 31 4q20 -14 24.5 -48t-18.5 -89q-4 -8 -13 -25.5t-24.5 -45t-27.5 -50.5q94 23 188 41q18 2 25.5 -3.5t3.5 -21.5q-14 -68 -103 -90 q-39 -10 -143 -32q76 -121 100 -152q8 -10 3 -19.5t-21 -11.5q-55 -4 -103 56q-41 51 -45 59q-66 -113 -98 -184q-10 -27 -31 -2q-37 41 -4 127q2 4 13.5 34.5t21.5 53.5q-88 -20 -156 -39q-14 -4 -21 1t-5 17z" />
<glyph unicode="+" horiz-adv-x="643" d="M127 598q-4 14 2 22.5t23 6.5q76 -6 200 6q12 20 52 93t58.5 105.5t47.5 2.5q61 -70 2 -191q127 -2 145 -111q4 -14 0 -21t-22 -5q-76 8 -199 -4q-80 -135 -106 -203q-8 -37 -37 -14q-72 55 -25 170q12 31 15 34h-4q-127 2 -152 109z" />
<glyph unicode="," horiz-adv-x="489" d="M112 -78q1 8 9 12q32 13 55 33q-49 27 -33 96q10 45 42 72t65 25q37 -2 55.5 -44t-0.5 -96q-20 -61 -75.5 -96t-108.5 -14q-10 4 -9 12z" />
<glyph unicode="-" horiz-adv-x="665" d="M92 516q-4 14 0 22.5t21 6.5q61 -4 191 6t165 10q131 0 154 -106q4 -14 -1.5 -22.5t-21.5 -6.5q-84 6 -203.5 -7t-154.5 -11q-129 6 -150 108z" />
<glyph unicode="." horiz-adv-x="456" d="M115 13q-8 38 8 75q18 41 52 61.5t64.5 10.5t39 -46t-8 -77t-51.5 -61.5t-65.5 -10.5t-38.5 48z" />
<glyph unicode="/" horiz-adv-x="811" d="M61 -57q-29 74 35 190q84 156 448.5 567.5t579.5 620.5q39 37 50 -12q23 -109 -125 -281q-43 -49 -256 -277.5t-408 -450.5t-285 -361q-8 -12 -19 -12.5t-20 16.5z" />
<glyph unicode="0" horiz-adv-x="1001" d="M86 336q-2 150 54.5 303.5t142.5 270t182 201.5t178 120q84 33 151.5 24.5t108.5 -51.5q113 -43 150 -174t8 -283.5t-100 -300.5q-121 -248 -290 -384t-354 -76q-113 37 -171 131t-60 219zM229.5 186.5q22.5 -104.5 87.5 -129.5q96 -39 244.5 84t257.5 348 q80 164 109.5 315.5t10.5 244t-73 110.5q-78 27 -231.5 -90t-276.5 -328q-84 -145 -117.5 -297.5t-11 -257z" />
<glyph unicode="1" horiz-adv-x="446" d="M14 168q31 94 153 346t241 467q-94 -6 -86 27q4 8 12 16q131 127 196 197q27 25 54 0q90 -80 -15 -279q-27 -49 -137 -251t-204.5 -386t-166.5 -356q-14 -35 -36 -8q-59 68 -11 227z" />
<glyph unicode="2" horiz-adv-x="866" d="M-53 93.5q6 15.5 39 35.5q270 162 502.5 365.5t344 381t44.5 252.5q-25 35 -64 27t-73.5 -29.5t-75.5 -65.5t-68 -79t-51 -72q-51 -76 -95 -107.5t-110 -29.5q-20 2 -23.5 8t2.5 25q35 96 124 220t198 179q70 39 155 31t142 -66q133 -133 23 -358q-70 -139 -291.5 -348.5 t-497.5 -356.5q152 45 279 50q145 2 182 -99q10 -31 -21 -30q-84 2 -245.5 -25t-260.5 -55q-70 -20 -102 14q-33 37 -51 86q-12 31 -6 46.5z" />
<glyph unicode="3" horiz-adv-x="878" d="M32 245q1 52 19 95q25 61 72 97t96 36q35 0 17 -29q-74 -119 -81.5 -221t50.5 -135q76 -47 186.5 1t196.5 157q80 98 108.5 185t-14.5 128q-29 16 -71 15t-80.5 -11t-86 2.5t-84.5 55.5q-23 27 19 38q205 59 349 165t189.5 199t0.5 140q-92 98 -297 -157 q-109 -137 -222 -115q-37 6 -20 37q45 92 134 185t165 130q74 37 162 28t139 -63q146 -149 -12 -358q-98 -129 -279 -205q63 -14 94 -41q78 -66 57.5 -188.5t-132.5 -261.5q-82 -100 -189.5 -146.5t-200 -38.5t-161.5 54q-66 43 -95.5 106.5t-28.5 115.5z" />
<glyph unicode="4" horiz-adv-x="872" d="M92 475q-18 35 8 66q123 145 372 349t456 337q53 35 80 -6q23 -35 57 -97q18 -33 16 -52t-32 -66q-113 -175 -289 -490q57 -31 76 -88q4 -14 -2.5 -20.5t-20.5 -4.5q-47 10 -111 7q-147 -268 -217 -447q-4 -10 -10 -14t-13 -2t-11 8q-59 88 -13 223q33 86 94 217 q-184 -25 -299 -53q-49 -10 -69 16q-31 41 -72 117zM193 475q215 55 411 66q158 305 297 508q-485 -334 -708 -574z" />
<glyph unicode="5" horiz-adv-x="849" d="M32 228.5q3 58.5 19 111.5q47 125 168 133q12 2 16.5 -7t-4.5 -22q-72 -113 -78 -224t56 -144q74 -45 191.5 31.5t193.5 205.5q74 127 86 240t-41 137q-55 29 -140 -11t-151 -128q-20 -25 -41 -2q-74 82 -6 225q72 147 205 359q-23 23 -35 61q-8 27 25 27 q109 -4 282.5 25.5t208.5 29.5q123 2 164 -111q8 -26 -21 -26q-80 0 -158.5 -10.5t-162.5 -26t-125 -21.5q-12 -2 -33 -2q-68 -100 -202 -313q76 27 150.5 17.5t121.5 -44.5q57 -43 83.5 -104.5t9.5 -169t-97 -238.5q-72 -121 -176.5 -186.5t-199.5 -65.5t-179 37 q-68 35 -100.5 96.5t-29.5 120z" />
<glyph unicode="6" horiz-adv-x="821" d="M71 305q-3 209 142 473q88 156 198.5 267.5t180.5 151.5t129 60q111 37 197 -20q75 -52 73 -156q-6 -166 -86 -321q-14 -31 -43 -10q-41 29 -49 91t21 142q14 41 23 68.5t17.5 58.5t6.5 46t-15 18q-72 10 -222 -112t-279 -343q154 94 292 6q68 -41 101 -109.5t21.5 -173 t-79.5 -227.5q-68 -121 -154.5 -182.5t-169.5 -59.5t-163 43q-139 80 -142 289zM211.5 164.5q15.5 -64.5 52.5 -86.5q61 -37 156.5 28.5t161 198.5t70.5 232.5t-54 130.5q-45 20 -117.5 -5.5t-149.5 -110.5t-112 -212q-23 -111 -7.5 -175.5z" />
<glyph unicode="7" horiz-adv-x="690" d="M23 -37q-49 76 34 234q90 174 321.5 459.5t405.5 441.5q-37 -6 -137 -28.5t-147 -29.5q-176 -25 -217 109q-8 25 22 25q96 0 270.5 28.5t186.5 30.5q31 6 52.5 1t41.5 -34q31 -47 59 -127q8 -33 2 -47t-40 -47q-186 -176 -433 -482.5t-385 -533.5q-18 -29 -36 0z" />
<glyph unicode="8" horiz-adv-x="794" d="M11.5 220q11.5 73 51.5 145q88 160 316 342q-59 133 -49 206q12 100 81.5 179t168.5 118q94 33 177 29t135 -60.5t46 -152.5q84 20 127 -6q14 -8 13 -18.5t-15 -18.5q-267 -145 -496 -313q8 -16 24.5 -48t30 -57.5t23.5 -50.5q129 -279 -57 -467q-78 -80 -213 -104.5 t-225 20.5q-84 41 -117 112.5t-21.5 144.5zM168 250q-76 -166 25 -217q51 -27 123.5 -7.5t125.5 76.5q31 33 49.5 59.5t33 64.5t11 86t-24 105.5t-69.5 153.5q-207 -176 -274 -321zM487 913q0 -49 23 -110q154 106 301 174q6 86 -24.5 142.5t-98.5 43.5q-76 -14 -138.5 -91 t-62.5 -159z" />
<glyph unicode="9" horiz-adv-x="847" d="M-18 160q-2 61 23.5 107t57.5 65q12 8 21.5 10t14.5 -3t3 -20q-57 -252 70 -296q92 -33 216 77.5t243 350.5q-141 -82 -283 -13q-66 33 -103.5 96.5t-31.5 173t76 238.5q100 186 235 255t269 3q141 -74 135 -285.5t-158 -517.5q-117 -233 -243 -347.5t-277 -116.5 q-102 -2 -182 51t-86 172zM343 630q-3 -110 58 -136q74 -35 175.5 37.5t162.5 224.5q61 168 59.5 265t-48.5 124q-57 31 -160 -51t-172 -217q-72 -137 -75 -247z" />
<glyph unicode=":" horiz-adv-x="522" d="M80 12q-10 37 8 76q20 41 54 61.5t63 10.5q31 -10 39 -46t-8 -77q-16 -39 -51 -60.5t-66 -11.5q-29 10 -39 47zM401 625.5q-9 35.5 9 76.5q18 39 51 60.5t63 9.5q29 -12 38 -46t-7 -75t-50 -61.5t-64.5 -10t-39.5 46z" />
<glyph unicode=";" horiz-adv-x="540" d="M66 -78q0 8 10 12q30 10 53 33q-49 27 -31 96q12 45 44 72t65 25q37 -2 53 -43t-2 -97q-20 -61 -74.5 -96t-107.5 -14q-10 4 -10 12zM421 625.5q-9 35.5 9 76.5q18 37 52 59.5t63 10.5q27 -10 37 -45t-6.5 -76t-50 -61.5t-64.5 -10t-40 46z" />
<glyph unicode="&#x3c;" horiz-adv-x="589" d="M150 573q-4 25 2 36.5t32 19.5q82 27 202 82t181 96q33 23 33 -19q0 -78 -76 -135q-50 -40 -200 -106q74 -41 116 -78q61 -55 52 -129q-6 -37 -37 -14q-76 55 -248 139q-43 20 -57 108z" />
<glyph unicode="=" horiz-adv-x="739" d="M106 483q-4 16 1.5 23.5t21.5 5.5q59 -4 185 8t169 10q133 -6 154 -110q4 -14 -1 -22.5t-22 -6.5q-84 6 -202.5 -7t-153.5 -11q-131 6 -152 110zM207 705q-4 16 1 22t21 4q57 -4 184.5 6.5t172.5 7.5q135 -8 151 -112q4 -14 -2 -22.5t-24 -6.5q-84 8 -208 -1t-149 -9 q-125 2 -147 111z" />
<glyph unicode="&#x3e;" horiz-adv-x="593" d="M125 346q-2 27 20.5 65t57.5 62q65 47 190 92q-82 43 -125 82q-61 57 -53 133q6 41 37 17q141 -100 301 -168q41 -16 18 -62q-39 -84 -90 -104q-260 -100 -325 -137q-16 -8 -22.5 -4t-8.5 24z" />
<glyph unicode="?" horiz-adv-x="788" d="M122.5 86q4.5 41 29 67.5t61.5 11t53 -58.5q33 -84 -12 -131q-18 -23 -54 -15.5t-59 44.5q-23 41 -18.5 82zM234 273.5q-7 43.5 18 121.5q29 66 86 120t172 120q205 117 295 309q23 47 34 94t5 92.5t-37 61.5q-78 41 -195.5 -69.5t-208.5 -293.5q-18 -35 -38 -6 q-27 29 -22 104.5t54 153.5q86 137 214 187.5t243 -19.5q86 -57 104.5 -163.5t-40.5 -235.5q-53 -111 -145.5 -188.5t-233.5 -153.5q-182 -100 -236 -297q-8 -35 -37 -6q-25 25 -32 68.5z" />
<glyph unicode="@" horiz-adv-x="1200" d="M123 389q-2 137 57.5 271.5t149.5 231.5t191.5 163.5t187.5 85.5q180 39 280 -64q106 -49 150.5 -153.5t36 -211t-49.5 -206.5q-57 -143 -147 -223t-180 -74q-59 4 -93 40t-38 89q-96 -113 -197 -113q-74 0 -110.5 59.5t-20.5 156t82 192.5q92 133 183 198.5t161 65.5 q45 0 72.5 -29.5t31.5 -70.5q33 55 54 80q23 25 37 10q23 -23 24.5 -69t-24.5 -111q-14 -33 -75 -133.5t-81 -147.5q-27 -61 -30 -105.5t20 -50.5q37 -8 95 54.5t116 193.5q74 170 54 321.5t-120 194.5q-111 47 -274.5 -29.5t-294.5 -261.5q-90 -125 -122 -263t-2.5 -241.5 t111.5 -140.5q88 -35 189.5 -9t169.5 89q10 12 20.5 10t10.5 -18q0 -80 -78 -127q-51 -29 -117 -36t-114 1t-85 23q-227 88 -231 358zM451.5 328q5.5 -41 37.5 -41q45 -2 105.5 62.5t126.5 176.5q49 86 73.5 152.5t21.5 98.5t-28 34q-41 2 -116.5 -68.5t-141.5 -175.5 q-43 -68 -63.5 -133t-15 -106z" />
<glyph unicode="A" horiz-adv-x="905" d="M36 412q5 6 27 4q55 -8 93 -10q135 236 322.5 486.5t338.5 375.5q22 18 40 18q19 0 34 -20q31 -43 47 -84q14 -33 14 -70.5t-14 -79.5q-98 -297 -150 -596q78 -27 93 -104q6 -29 -23 -19q-37 10 -88 13q-25 -190 -31 -328q0 -23 -14 -23q-6 0 -16 5q-74 33 -76 186 q0 74 8 156q-41 -2 -197 -18q-139 -15 -198 -15h-13q-94 -162 -155 -295q-6 -14 -17.5 -14t-19.5 10q-20 27 -20 73q0 55 30 136q23 57 55 116q-49 27 -67 70q-5 12 -5 20q0 5 2 7zM311 412q47 4 170 18t176 16q57 391 152 631q-254 -284 -498 -665z" />
<glyph unicode="B" horiz-adv-x="929" d="M17 152v5q0 34 28 132q133 373 391 758q-106 6 -139 81q-14 33 20 35q72 6 234 61.5t231 59.5q12 1 24 1q174 0 218 -167q14 -53 15 -104q0 -126 -87 -238q-125 -160 -319 -244q59 -29 98 -86q28 -33 29 -90q0 -18 -4 -38q-12 -85 -72 -152q-66 -70 -166 -122t-192 -69 q-44 -8 -80 -8q-54 1 -92 19q-62 30 -105 94q-29 42 -32 72zM150 96q12 -16 45 -15q9 0 20 1q102 12 217 71.5t178 137.5q40 49 48 90q1 7 2 13q0 32 -33 58q-39 30 -127 35q-29 -6 -86 -14q-22 -2 -41 -2q-53 0 -86 16q-100 -193 -137 -317q-8 -26 -8 -45t8 -29zM342 590 q287 68 467 232q147 134 147 234q0 23 -8 44q-12 31 -40 43q-16 7 -40 7q-16 0 -36 -3q-48 -8 -80.5 -17.5t-101 -33t-87.5 -29.5v-13q0 -73 -61 -188q-23 -43 -79 -138t-81 -138z" />
<glyph unicode="C" horiz-adv-x="946" d="M68 367v10q0 149 55 298q57 154 148 269t191.5 198t190.5 118q89 34 156 34q74 0 121 -41q84 -72 108 -149q10 -32 10 -66q0 -56 -28 -114q-23 -47 -82 -203q-12 -35 -45 -12q-62 41 -62 118q0 35 13 78q8 27 23.5 65t25.5 65.5t18.5 57t7.5 51t-16 36.5q-13 15 -40 15 q-32 0 -84 -22q-95 -40 -219 -150t-210 -253q-86 -142 -116 -290q-19 -92 -19 -166q1 -46 7 -84q18 -102 69 -144q45 -37 100 -37q65 -1 143 51q144 94 261 322q8 16 21 16t22 -20q13 -34 13 -69q1 -59 -37 -123q-60 -100 -142 -160q-104 -74 -227 -84q-20 -2 -38 -1 q-97 0 -163 42q-74 39 -124 131t-52 213z" />
<glyph unicode="D" horiz-adv-x="989" d="M28 165q0 3 -1 6q0 38 28 132q47 141 156.5 350t218.5 373q-100 6 -133 86q-12 35 20 39q74 10 194 60.5t183 60.5q23 4 45 4q159 0 265 -184q50 -100 50 -218q0 -124 -66 -262q-64 -136 -162.5 -255t-243 -219.5t-303.5 -153.5q-32 -11 -59 -11q-42 0 -73 25 q-59 49 -86 88q-31 43 -33 79zM150 102q7 -12 25 -13q13 0 32 7q135 51 254 134t201.5 175.5t147 194.5t90.5 192q26 92 32 170q1 11 1 22q0 63 -30 103q-25 41 -70 47q-15 2 -30 3q-29 -1 -53 -9q-38 -12 -108 -41.5t-103 -39.5q4 -18 4 -37q0 -78 -58 -179 q-4 -6 -80.5 -141t-104.5 -187t-75 -150.5t-67 -164.5q-13 -41 -14 -64q1 -14 6 -22z" />
<glyph unicode="E" horiz-adv-x="753" d="M-27 59q-12 22 -12 50q0 30 14 67q68 182 203 437t268 462q-63 25 -86 105q-4 14 2.5 20t20.5 4q17 -1 36 -1q91 -1 247 23q188 28 227 29h5q115 0 151 -100q3 -6 3 -11q0 -6 -4 -10q-6 -8 -22 -6q-51 0 -111.5 -6t-102.5 -13t-106.5 -19.5t-95.5 -16.5 q-94 -141 -282 -483q63 12 145 16h15q123 0 153 -92q10 -31 -20 -31q-150 0 -379 -57q-96 -184 -158 -324q182 57 317 64h16q125 0 158 -90q10 -31 -20 -31h-6q-138 0 -447 -82q-16 -4 -30 -4q-35 0 -56 25q-6 6 -43 75z" />
<glyph unicode="F" horiz-adv-x="743" d="M-18 203q45 131 180 388t276 486q-61 29 -80 105q-6 25 23 24q12 -1 26 -1q93 1 251 25q182 28 225 27q125 0 168 -104q3 -8 3 -13q0 -18 -28 -18q-70 0 -141.5 -9t-158.5 -25.5t-122 -22.5q-125 -203 -268 -467q63 12 137 16q10 1 19 0q122 0 153 -98q10 -31 -22 -31h-9 q-132 0 -368 -57q-137 -266 -212 -442q-7 -17 -19 -17q-8 0 -17 8q-40 34 -40 102q0 52 24 124z" />
<glyph unicode="G" horiz-adv-x="1024" d="M66 344v9q0 152 64 305q67 159 168 277t209.5 202t199.5 112q81 26 146 26q77 0 130 -38q80 -57 107 -145q11 -33 11 -67q0 -54 -26 -112q-37 -82 -80 -196q-14 -37 -43 -10q-63 44 -63 124q0 32 10 70q8 31 26.5 78t29 74.5t15.5 64.5t-14 45q-15 16 -45 16 q-35 0 -91 -22q-103 -41 -234 -150.5t-224 -248.5q-90 -137 -128 -286q-29 -117 -29 -205q0 -24 2 -45q10 -103 53 -142q38 -35 90 -35q62 0 144 51q149 94 243 281q-131 -25 -180 -29q-16 -2 -31 -2q-118 0 -166 100q-16 33 21 33q84 2 233.5 29t206.5 27h5q135 0 182 -105 q8 -16 3 -25.5t-24 -7.5q-21 2 -47 2q-42 0 -96 -6q8 -30 8 -60q0 -98 -89 -193q-116 -124 -218 -152q-78 -22 -145 -22q-113 0 -197 63q-135 100 -137 315z" />
<glyph unicode="H" horiz-adv-x="999" d="M55 195q8 31 88 208q-47 23 -69 66q-10 18 -4 25.5t30 5.5q6 0 38 -3t48 -3q100 211 222 435t184 310q14 18 26 18q13 0 23 -20q18 -34 18 -79q0 -89 -69 -224q-31 -57 -110 -201.5t-124 -228.5q49 6 187.5 31.5t216.5 29.5q264 526 395 699q15 20 28 20t23 -22 q16 -33 16 -75q0 -94 -79 -235q-23 -43 -101.5 -180t-128.5 -227q61 -27 80 -90q2 -14 -3 -19.5t-19 -3.5q-35 7 -79 7q-17 0 -36 -1q-113 -215 -209 -434q-14 -35 -35 -4q-29 41 -29 102q0 54 23 123q25 72 86 197q-365 -45 -403 -45q-100 -201 -187 -400q-9 -22 -19 -22 q-8 0 -17 14q-30 41 -30 107q0 52 19 119z" />
<glyph unicode="I" horiz-adv-x="372" d="M-4 215q72 201 248 530t307 517q14 20 26 20q13 0 23 -22q17 -35 17 -80q0 -96 -78 -234q-354 -623 -502 -954q-6 -16 -15 -16q-8 0 -18 12q-35 37 -35 99q0 55 27 128z" />
<glyph unicode="J" horiz-adv-x="894" d="M0 311q16 63 54 105.5t81 52.5q23 4 31 -6t0 -35q-46 -132 -46 -223q0 -95 26 -131q26 -35 63 -43q19 -4 37 -4q26 0 51 8q43 14 87 59t77 87t78 125t69.5 132t71.5 146q264 543 352 678q12 19 24 19q13 0 25 -21q24 -41 24 -96q0 -69 -38 -160q-57 -133 -179 -378 t-200 -376q-174 -290 -417 -290q-37 0 -76 7q-117 20 -173 117q-35 59 -35 132q0 45 13 95z" />
<glyph unicode="K" horiz-adv-x="813" d="M2 201q39 131 236.5 521t291.5 521q13 17 25 17q13 0 25 -21q21 -37 21 -85q0 -88 -69 -214q-145 -264 -194 -354q432 324 749 667q12 14 21 14q11 0 18 -18q6 -21 6 -43q0 -78 -69 -172q-72 -96 -258.5 -261t-388.5 -308q113 -180 145 -256q30 -74 30.5 -130.5 t-30.5 -96.5q-9 -12 -18 -12q-10 0 -19 16q-112 217 -268 444q-104 -199 -211 -448q-8 -17 -17 -17q-7 0 -16 10q-30 42 -30 106q0 52 20 120z" />
<glyph unicode="L" horiz-adv-x="722" d="M-8 78q-9 21 -9 47q0 33 15 72q72 184 267.5 548.5t293.5 499.5q14 19 26 19q13 0 23 -23q17 -35 17 -78q0 -87 -68 -211q-6 -10 -114.5 -204.5t-185 -340t-144.5 -292.5q178 47 311 57q15 1 28 1q117 0 152 -93q12 -31 -20 -31h-6q-128 0 -441 -80q-26 -7 -44 -7 q-7 0 -13 1q-20 4 -35 27q-41 59 -53 88z" />
<glyph unicode="M" horiz-adv-x="1173" d="M-20 195q55 145 257.5 480t370.5 562q17 25 36 25q14 0 30 -13q62 -55 74 -117q3 -15 3 -34q0 -59 -28 -152q-113 -338 -217 -723q117 193 380 524.5t367 495.5q15 21 31 21q14 0 29 -15q56 -57 56 -134q0 -73 -50 -165q-315 -586 -451 -975q-6 -15 -15 -15q-7 0 -17 9 q-40 32 -40 107q0 49 17 117q47 188 295 663q-432 -522 -619 -870q-9 -20 -22 -20q-7 0 -14 5q-83 61 -83 183q0 31 5 65q43 266 176 672q-383 -578 -533 -916q-6 -17 -16 -17q-8 0 -18 13q-33 35 -33 94q0 55 29 130z" />
<glyph unicode="N" horiz-adv-x="940" d="M0 209q131 362 530 1034q15 26 34 26q10 0 20 -7q58 -40 72 -94q7 -25 6 -61q0 -42 -9 -99q-43 -260 -67 -738q100 227 253.5 511t274.5 470q12 18 23 18q12 0 24 -22q16 -32 16 -73q0 -91 -79 -224q-96 -160 -256 -465t-246 -499q-8 -19 -23 -19q-8 0 -18 6 q-47 25 -69.5 71t-30.5 142q-6 70 -6 155q0 221 40 538q-346 -594 -444 -891q-6 -20 -16 -20q-8 0 -19 12q-37 41 -37 104q0 55 27 125z" />
<glyph unicode="O" horiz-adv-x="1099" d="M82 367q0 156 62.5 311.5t157.5 271t199.5 198.5t194.5 116q68 23 124 23q94 0 155 -64q121 -53 157 -193q18 -71 18 -146q0 -74 -18 -152q-34 -159 -114 -306q-138 -252 -322 -383q-119 -85 -243 -85q-68 0 -138 26q-233 86 -233 383zM230 200q20 -110 89 -139 q29 -12 61 -13q87 0 203 87q160 119 285 348q88 163 124 319q24 103 24 181q0 41 -6 73q-18 98 -76 118q-18 7 -40 7q-80 0 -211 -88q-167 -112 -302 -321q-94 -147 -133 -304q-26 -103 -26 -186q1 -44 8 -82z" />
<glyph unicode="P" horiz-adv-x="870" d="M-2 190q39 139 164 390t260 462q-94 10 -129 86q-16 35 20 37q84 8 238 57.5t225 53.5h12q172 0 232 -170q18 -53 19 -109q0 -116 -81 -241q-80 -125 -238.5 -226.5t-352.5 -138.5q-19 -3 -37 -3q-49 0 -90 24q-84 -164 -191 -418q-6 -16 -15 -16q-8 0 -18 10 q-34 36 -34 101q0 44 16 101zM299 526q315 59 497 248q145 150 146 259q0 28 -10 54q-12 33 -42 45q-18 7 -42 6q-15 0 -33 -2q-45 -8 -84 -20t-96 -32.5t-86 -28.5q0 -92 -78 -226q-6 -10 -70.5 -122.5t-101.5 -180.5z" />
<glyph unicode="Q" horiz-adv-x="1112" d="M-18 -56q-3 3 -3 6q0 5 5 11q59 78 200 78h21h14q-143 109 -143 332q0 156 63.5 310.5t156.5 269t195.5 195.5t190.5 111q69 24 126 24q94 0 157 -64q117 -53 151 -191q18 -69 18 -143t-18 -153q-35 -157 -112 -306q-104 -197 -245.5 -323t-295.5 -134q18 -8 108.5 -56 t123 -61.5t95.5 -27.5q37 -9 68 -9q24 0 45 5q25 4 29 -5.5t-8 -19.5q-47 -61 -140 -75q-29 -4 -55 -4q-61 0 -111 22q-57 18 -122.5 55t-111.5 65.5t-112.5 58.5t-123.5 34q-13 1 -28 1q-50 0 -118 -11q-14 -2 -20 5zM224 206q20 -110 87 -140q30 -14 64 -14q85 0 198 84 q158 116 281 345q88 162 124 317q24 105 24 184q0 38 -6 70q-17 97 -74 119q-19 8 -42 8q-78 0 -206 -85q-166 -111 -301 -322q-94 -145 -132 -301q-25 -101 -25 -183q0 -44 8 -82z" />
<glyph unicode="R" horiz-adv-x="937" d="M31 188q39 139 163.5 392.5t260.5 466.5q-90 8 -131 81q-14 29 22 35q84 10 238.5 58.5t224.5 52.5h17q78 0 132 -32q60 -36 95 -134q21 -60 21 -119q0 -119 -85 -233q-82 -111 -234.5 -200t-324.5 -130q141 -176 195 -281q23 -43 25 -88q0 -5 1 -11q0 -38 -16 -66 q-9 -15 -18 -15q-7 0 -15 10q-195 266 -338 424q-90 -178 -182 -405q-12 -29 -33 -8q-34 36 -34 101q0 44 16 101zM340 543q314 70 494 247q141 139 142 243q0 28 -11 54q-10 27 -35 41q-23 13 -50 12h-4q-30 -1 -71 -10.5t-75 -21.5t-78.5 -26.5t-71.5 -22.5 q0 -88 -78 -232q-20 -37 -75.5 -132t-86.5 -152z" />
<glyph unicode="S" horiz-adv-x="909" d="M-72 227q-15 16 -15 28q0 13 19 19q29 8 59 8q23 0 49 -5q58 -11 99 -46q215 -172 355 -172q84 0 127 37q24 27 24 53q0 28 -29 54q-29 25 -111.5 76t-147 95t-119 114.5t-54.5 144.5q0 131 90.5 261t199 211t210.5 126q87 36 152 36q68 0 112 -40q78 -72 103 -172 q5 -20 5 -40q0 -75 -65 -165q-57 -76 -141 -227q-18 -33 -45 -7q-44 44 -44 104q0 43 23 95q14 33 66 109t78 132q14 30 14 51q0 17 -10 28q-12 12 -35 12q-47 0 -141 -48q-140 -73 -272 -208q-136 -139 -136 -258q0 -57 56 -111q58 -56 177 -125t138 -84q52 -37 51 -96v-13 q-6 -68 -74 -145q-47 -55 -132 -81q-65 -20 -141 -21q-23 0 -47 2q-104 8 -224.5 76.5t-223.5 191.5z" />
<glyph unicode="T" horiz-adv-x="825" d="M106 174q37 129 178.5 409.5t280.5 491.5q-63 -10 -125 -14h-11q-85 1 -143 29q-62 30 -79 88q-4 14 2 21t20 5q19 -2 44 -1q105 0 304 27q232 32 285 32h6q156 -4 195 -105q3 -7 3 -13t-3 -10q-6 -10 -25 -8q-21 2 -48 2q-107 0 -300 -32v-10q0 -85 -67 -207 q-18 -33 -96 -172.5t-122.5 -220t-114 -221t-124.5 -271.5q-6 -16 -15 -16q-8 0 -18 10q-39 37 -39 103q0 37 12 83z" />
<glyph unicode="U" horiz-adv-x="925" d="M16 344q72 287 476 899q12 18 24 18q13 0 25 -20q22 -35 22 -84q0 -81 -61 -201q-27 -53 -118 -208.5t-154.5 -283.5t-86.5 -224q-14 -58 -14 -100q0 -84 55 -105q21 -8 44 -8q73 -1 161 85q115 112 227 330q256 500 449 803q11 19 23 19q13 0 26 -21q19 -34 19 -80 q0 -72 -46 -174q-61 -137 -214.5 -412.5t-247.5 -406.5q-104 -144 -231 -192q-65 -24 -126 -25q-58 0 -112 22q-157 65 -157 241q0 58 17 128z" />
<glyph unicode="V" horiz-adv-x="825" d="M90 244q27 238 91.5 540.5t119.5 450.5q10 26 24 26q10 0 21 -14q40 -46 40 -139q0 -64 -19 -150q-123 -565 -162 -798q141 238 404 588t407 499q10 9 19 13l6 2q5 0 11 -4q8 -6 11 -21q3 -16 3 -34q0 -105 -116 -257q-6 -8 -175 -225t-299 -395.5t-236 -345.5 q-14 -21 -32 -21q-12 0 -26 10q-96 72 -96 215q0 29 4 60z" />
<glyph unicode="W" horiz-adv-x="1290" d="M86 80q-5 23 -5 52q0 51 15 120q55 231 159.5 530t180.5 445q15 27 29 27q12 0 22 -19q22 -39 22 -96q0 -79 -42 -195q-180 -494 -256 -741q137 223 343 508.5t374 488.5q29 33 51 -2q33 -47 35 -96v-5q0 -50 -35 -165q-156 -455 -229 -739q150 246 396.5 576.5 t387.5 479.5q17 17 29 17h3q14 -2 17 -25q3 -14 3 -30q0 -108 -122 -267q-23 -31 -133 -173t-184 -240.5t-185.5 -253t-197.5 -287.5q-15 -23 -33 -23q-14 0 -29 13q-56 48 -70 110q-6 25 -5 59q0 48 12 113q47 221 170 569q-342 -446 -596 -851q-16 -24 -34 -24 q-13 0 -27 13q-52 47 -66 111z" />
<glyph unicode="X" horiz-adv-x="817" d="M0 -16q-12 27 -12 58q0 69 57 157q74 117 395 456q-59 408 -102 578q-4 15 4 23q6 6 17 6h6q111 -18 157 -183q18 -65 51 -286q313 322 467 462q15 14 26 14q15 0 21 -28q4 -18 4 -37q0 -112 -139 -246q-236 -225 -354 -344q66 -463 150 -608q10 -16 4 -28q-6 -10 -18 -9 h-5q-150 12 -211 262q-27 117 -49 250q-287 -293 -436 -501q-9 -14 -17 -14q-9 0 -16 18z" />
<glyph unicode="Y" horiz-adv-x="776" d="M102 178q27 96 127 297q8 502 60 758q5 30 22 30q9 0 21 -8q72 -45 72 -195q0 -20 -1 -42q-2 -53 -14 -186.5t-16 -215.5q311 344 641 637q14 11 24 11q13 0 19 -21q5 -19 5 -39q0 -101 -130 -229q-25 -25 -143.5 -137.5t-219 -212t-213.5 -222.5q-123 -219 -194 -423 q-7 -17 -18 -17q-9 0 -21 10q-39 34 -39 100q0 45 18 105z" />
<glyph unicode="Z" horiz-adv-x="903" d="M8 182q127 188 438.5 488.5t538.5 455.5q-39 -6 -156.5 -29.5t-164.5 -29.5q-23 -2 -43 -2q-138 0 -175 106q-10 31 23 31h12q88 0 255 26q179 28 208 29q9 1 17 1q53 0 79 -35q39 -49 68 -133q5 -16 5 -29t-4 -21q-9 -18 -48 -45q-221 -158 -490.5 -413t-459.5 -480 q225 59 362 70q15 1 29 1q115 0 151 -89q14 -31 -20 -31q-174 0 -483 -84q-33 -10 -56 -10h-7q-24 2 -40 29q-43 68 -49 84q-13 27 -13 49q0 24 23 61z" />
<glyph unicode="[" horiz-adv-x="647" d="M-43 39q88 252 285.5 647t384.5 643q33 43 78 60q57 18 143 22q57 2 84 -20q25 -23 49 -56q8 -10 2 -21t-25 -14q-113 -7 -213 -38q-170 -248 -363.5 -614.5t-313.5 -665.5q41 10 71 16q98 20 146 -66q18 -35 -19 -36q-86 -8 -186 -48q-41 -14 -72 19q-29 31 -49 65 q-25 41 -2 107z" />
<glyph unicode="\" horiz-adv-x="727" d="M322 1296q-2 23 11 30t29 -3q100 -51 134 -283q106 -762 188 -1093q4 -16 -3 -22.5t-22 -4.5q-84 14 -133 160q-49 150 -116.5 556t-87.5 660z" />
<glyph unicode="]" horiz-adv-x="653" d="M-124 -81q3 13 22 20q84 27 221 45q143 326 334.5 691.5t345.5 592.5q-6 0 -45 -8.5t-58 -10.5q-55 -6 -112 74q-27 37 20 45q27 4 79 14.5t92 15.5t71 5q39 0 59 -29l37 -74q18 -39 -2 -69q-389 -592 -715 -1321q-20 -49 -65 -55q-23 -4 -62 -11.5t-57 -9.5 q-61 -10 -96 12q-35 25 -60 50q-12 10 -9 23z" />
<glyph unicode="^" horiz-adv-x="546" d="M146.5 833q-5.5 37 25.5 103q78 125 231 307q20 20 46 4q43 -31 51 -100q23 -190 59 -330q4 -18 1 -23.5t-19 -7.5q-33 -2 -67 17.5t-48 73.5q-25 86 -35 147q-14 -18 -59 -73.5t-74 -92.5t-49 -72q-16 -29 -37 -8q-20 18 -25.5 55z" />
<glyph unicode="_" horiz-adv-x="749" d="M-160 -227q10 33 54.5 56.5t107.5 23.5h885q35 0 24 -29q-14 -33 -57 -56.5t-106 -23.5h-885q-31 0 -23 29z" />
<glyph unicode="`" horiz-adv-x="157" d="M0 1526q-2 14 5.5 20t19.5 2q76 -20 100 -100q10 -33 19.5 -108.5t11.5 -84.5q2 -14 -4.5 -20t-18.5 -2q-49 10 -78 82q-6 14 -55 211z" />
<glyph unicode="a" horiz-adv-x="833" d="M6 240q20 118 103 239q117 170 230.5 252t199.5 82q63 0 96 -42q29 -37 29 -92v-13q45 84 73 125q17 24 31 24q10 0 18 -12q27 -31 29 -89v-7q0 -56 -31 -132q-18 -39 -94 -166.5t-102 -187.5q-27 -57 -35 -102q-3 -18 -3 -33q0 -23 7 -39q12 -27 47 -24q59 2 135 86 t133 198q18 33 33 2q7 -16 7 -35q0 -38 -25 -92q-43 -90 -128 -156q-80 -63 -158 -63h-9q-82 4 -125 49t-43 119q-125 -160 -256 -160q-94 0 -138 75q-30 51 -30 123q-1 33 6 71zM146 92q6 -53 44 -53h3q58 0 132 81q76 83 160 228q61 109 92 191q29 77 29 117v6 q-2 40 -33 45h-4q-51 -1 -144 -87q-97 -90 -179 -223q-53 -86 -80 -169q-22 -67 -22 -114q1 -12 2 -22z" />
<glyph unicode="b" horiz-adv-x="720" d="M-20 207q41 129 267 554t331 570q13 19 26 19t25 -21q18 -35 18 -80q0 -90 -72 -223q-14 -29 -81.5 -141.5t-100.5 -169.5q96 86 176 86q127 0 143 -153q2 -23 2 -47q0 -134 -75 -292q-72 -160 -162 -246t-180 -86q-156 0 -215 146l-30 -69t-29 -66q-7 -18 -16 -18 q-8 0 -17 12q-32 43 -32 106q0 52 22 119zM123 211q4 -49 25.5 -89t60.5 -48q11 -2 22 -2q120 0 263 284q56 109 74 194q12 55 12 91q0 20 -4 34q-10 40 -37 42h-8q-60 0 -142 -82q-125 -131 -266 -424z" />
<glyph unicode="c" horiz-adv-x="636" d="M26 126q-24 60 -24 126q0 108 64 231q94 185 226 271q84 55 148 55q36 0 66 -18q78 -47 112 -113q10 -33 12 -54.5t-10 -58.5t-23 -62.5t-29 -64.5t-29 -65q-10 -33 -43 -17q-62 31 -62 105q0 33 12 74q6 18 17.5 44.5t21 45t17.5 41t8 33t-8 20.5q-5 4 -14 4 q-18 -1 -52 -23q-48 -32 -110 -107t-105 -163q-65 -141 -65 -243q0 -23 4 -45q18 -114 112 -115h5q115 0 217 85q104 87 182 205q8 12 19.5 12.5t17.5 -14.5q3 -9 3 -20q0 -39 -40 -102q-59 -92 -170 -157t-225 -67h-5q-188 0 -250 157z" />
<glyph unicode="d" horiz-adv-x="821" d="M-14 240q20 118 102 237q113 166 227.5 248t200.5 82q59 0 92 -40q31 -38 31 -92v-7q229 436 340 594q16 22 28.5 22t20.5 -22q14 -33 14 -74q0 -96 -77 -236q-18 -33 -87 -153.5t-114 -201.5t-103.5 -190.5t-93.5 -185.5q-29 -59 -38 -104q-4 -19 -4 -34q-1 -22 7 -37 q12 -26 48 -23q59 2 133.5 84.5t132.5 197.5q18 33 33 2q7 -17 7 -38q0 -38 -24 -89q-43 -88 -128 -154q-80 -62 -158 -61h-9q-166 10 -166 164q-127 -158 -254 -158q-94 0 -137 75q-30 52 -30 124q0 33 6 70zM124 91q7 -52 46 -52h3q60 0 135 81q77 83 151 224 q121 231 121 313q0 34 -21 43q-4 2 -10 2h-2q-49 0 -145 -87q-98 -89 -179 -220q-53 -86 -79 -169q-21 -66 -22 -112q1 -12 2 -23z" />
<glyph unicode="e" horiz-adv-x="655" d="M30 125q-24 61 -24 128q0 108 64 230q94 187 228 273q86 55 151 56q36 0 65 -17q78 -47 121 -107q20 -21 19 -64q0 -24 -6 -55q-18 -86 -79 -159q-53 -63 -111 -96q-48 -27 -105 -27q-13 0 -25 1q-70 7 -140 62q-29 -88 -30 -156q0 -40 11 -74q28 -89 112 -93h15 q107 0 206 81q106 87 186 209q20 31 35 -2q4 -7 4 -18q0 -13 -5 -34q-9 -38 -34 -75q-66 -96 -175.5 -157.5t-225.5 -63.5h-5q-189 0 -252 158zM207 395q33 -20 67 -20q84 0 177 123q51 66 77 132q14 36 13 58q0 18 -9 25t-21 7q-22 0 -56 -20q-54 -30 -120.5 -104 t-111.5 -166q-12 -25 -16 -35z" />
<glyph unicode="f" horiz-adv-x="501" d="M-184 -309q27 209 174 539.5t293.5 579.5t287.5 462q11 17 27 17h2q16 -1 23 -19q11 -32 11 -69q0 -101 -81 -238q-236 -391 -336 -586q107 -34 107 -224v-14q0 -20 -5 -69q123 82 213 260q6 12 14.5 16t16.5 0t12 -18q3 -11 3 -25q0 -37 -23 -98q-18 -47 -91 -116 t-155 -97q-25 -156 -86 -310.5t-135 -246.5q-51 -63 -94 -73q-8 -1 -16 -1q-35 0 -72 33q-95 80 -95 226q0 34 5 71zM-72 -526q7 -9 17 -9q32 0 96 109q98 176 154 403q-88 8 -125 82q-92 -217 -133 -379q-23 -92 -23 -145q0 -42 14 -61zM152 154v-13q0 -93 55 -104 q14 74 18 147q0 37 -5 70t-12 50q-5 14 -11 14q-2 0 -4 -1q-14 -6 -26.5 -63t-14.5 -100z" />
<glyph unicode="g" horiz-adv-x="821" d="M-131 -453q80 250 438 387q12 25 31.5 73t28.5 69q-102 -102 -207 -103q-92 0 -136 74q-30 51 -30 122q0 33 6 69q20 118 100 237q113 166 227.5 248t202.5 82q59 0 91 -39q30 -37 30 -89v-7q8 14 22.5 37.5t26 41t19.5 33.5q16 26 31 26q10 0 20 -13q27 -31 29 -89v-6 q0 -55 -33 -131q-223 -446 -277 -569q217 109 367 307q6 8 13.5 11.5t13.5 -1t8 -14.5q1 -5 1 -12q0 -38 -42 -107q-104 -162 -397 -268q-51 -125 -92.5 -214t-97.5 -192.5t-115.5 -170t-118.5 -89.5q-20 -8 -38 -8q-46 0 -81 51q-56 80 -56 165q0 44 15 89zM-49 -635 q4 -5 10 -5q17 0 55 41q50 56 121.5 179t134.5 270q-123 -72 -206.5 -181t-109.5 -193q-14 -46 -14 -75q0 -24 9 -36zM136 89q7 -52 48 -52h3q56 0 128 81q74 83 158 226q122 211 122 301q0 22 -7 37q-8 16 -27 18h-4q-49 0 -143 -86q-97 -90 -178 -219q-53 -86 -80 -170 q-21 -67 -21 -113q0 -12 1 -23z" />
<glyph unicode="h" horiz-adv-x="772" d="M-39 203q53 152 295 563.5t369 568.5q15 20 27 20q13 0 22 -22q16 -36 16 -79q0 -91 -74 -212q-18 -33 -245 -385q66 63 135 105q63 39 103 39h7q57 -7 86 -71q13 -29 13 -61q0 -39 -19 -83q-16 -33 -90 -160t-100 -186q-25 -58 -31 -108q-2 -13 -1 -24q0 -34 12 -54 q18 -28 55 -25q59 2 133 88t127 194q6 14 18 14.5t19 -12.5q7 -15 7 -33q0 -38 -28 -94q-45 -90 -130 -154.5t-173 -64.5q-125 0 -164 85q-17 38 -17 85q0 59 27 133q29 84 90 190q62 108 100 170q27 45 27 61q0 7 -4 9q-3 1 -7 1q-20 -1 -74 -31q-64 -38 -149 -117.5 t-140 -169.5q-129 -211 -199 -389q-14 -33 -35 -8q-32 36 -32 96q0 52 24 121z" />
<glyph unicode="i" d="M-8 56q-15 37 -15 82q0 59 27 130q37 104 119 257t143 241q27 37 49 12q27 -29 29 -86v-7q0 -55 -31 -130q-16 -33 -81.5 -153.5t-90.5 -178.5q-33 -80 -33 -132v-12q4 -50 47 -50h7q66 2 141.5 85t124.5 195q16 31 33 0q10 -18 10 -41q0 -37 -25 -86 q-45 -94 -131 -153.5t-174 -59.5q-113 0 -149 87zM326 918q4 40 30 67q16 17 37 17q12 0 25 -6q37 -16 57 -56q17 -34 16 -64q0 -40 -30 -73q-14 -17 -38 -17q-8 0 -17 2q-37 8 -60 46q-20 37 -20 73v11z" />
<glyph unicode="j" horiz-adv-x="364" d="M-629 -578q2 37 17 80q86 252 444 389q254 608 432 881q25 39 49 12q26 -30 26 -90q0 -57 -32 -135q-20 -45 -129 -265t-160 -333q229 119 388 352q6 8 12 11.5t12 0.5t8 -14q3 -11 3 -24q0 -39 -33 -97q-100 -178 -426 -315q-53 -127 -95.5 -215t-100.5 -192.5 t-117.5 -170t-117.5 -88.5q-22 -9 -41 -9q-44 0 -75 48q-20 31 -30.5 50.5t-22.5 53.5q-11 29 -11 60v10zM-524 -680q3 -4 9 -4q17 0 56 44q51 58 123 180t133 265q-123 -70 -207 -180t-110 -194q-13 -46 -13 -75q0 -24 9 -36zM344 842q-21 38 -21 72q0 40 31 75 q16 18 38 18q11 0 24 -5q37 -15 55 -58q15 -33 15 -62q0 -39 -27 -71q-13 -19 -37 -19q-9 0 -18 2q-37 9 -60 48z" />
<glyph unicode="k" horiz-adv-x="751" d="M-14 221q45 150 246.5 541t332.5 567q16 21 29 21q12 0 22 -19q16 -32 16 -74q0 -89 -75 -219q-63 -108 -184 -327q86 84 182 116q24 8 46 9q74 0 122 -99q25 -51 25 -97q0 -77 -68 -142q-119 -117 -285 -166q6 -125 45 -206t99 -87h8q55 0 123 80q74 86 127 196 q10 18 21 19.5t20 -17.5q6 -15 6 -33q0 -39 -31 -91q-124 -216 -303 -216h-2q-118 3 -190 101q-71 96 -70 284v11q0 29 7 38t36 17q119 39 210 105.5t128 124.5q25 39 25 64q0 12 -5 21q-9 18 -36 18q-17 1 -41 -7q-64 -18 -144 -80q-111 -84 -193.5 -228.5t-209.5 -445.5 q-4 -12 -15.5 -14t-21.5 10q-27 31 -27 89q0 56 25 136z" />
<glyph unicode="l" horiz-adv-x="471" d="M23 297q53 252 200.5 510t317.5 434q26 27 50 27q19 0 38 -17q59 -52 60 -139q0 -39 -13 -86q-45 -176 -184 -347t-291 -269q-43 -102 -61 -186q-12 -52 -12 -92q0 -24 4 -44q11 -53 56 -57h9q69 0 157 84q94 90 156 213q6 12 15.5 17t17.5 1t12 -18t4 -31q0 -41 -24 -96 q-31 -66 -133 -148q-99 -80 -204 -80h-5q-111 4 -158 84q-27 46 -27 118q0 54 15 122zM238 498q127 102 222 240.5t129 229.5q23 61 23 85q0 12 -6 16q-2 1 -4 1q-24 0 -112 -132q-96 -143 -203 -342q-29 -49 -49 -98z" />
<glyph unicode="m" horiz-adv-x="1157" d="M-39 190q33 98 130 283.5t192 327.5q12 18 22.5 17.5t20.5 -17.5q24 -40 24 -94q0 -56 -26 -125q72 84 168 154q93 69 146 69h3q51 -3 75 -67q13 -36 14 -72q0 -30 -9 -62q80 78 167 136q84 56 133 55h3q54 -2 68 -76q4 -23 4 -45q0 -52 -23 -105q-20 -51 -94 -168.5 t-94 -160.5q-31 -66 -31 -116q0 -18 4 -34q14 -60 68 -59h4q100 2 256 280q18 31 37 4q5 -5 5 -23q0 -12 -2 -29q-5 -44 -22 -77q-45 -90 -133 -154.5t-174 -64.5q-131 1 -179 93q-22 41 -22 89q0 59 33 127q31 70 97 174q65 104 104 168q29 48 29 62q0 5 -3 6 q-10 4 -33.5 -5t-73.5 -46t-112 -98q-193 -193 -356 -560q-11 -23 -25 -23q-10 0 -22 13q-41 36 -41 103q0 64 37 155q27 70 100.5 187.5t119.5 195.5q33 56 33 75q0 7 -5 9q-12 6 -47 -11t-91.5 -63.5t-117.5 -113.5q-154 -166 -302 -514q-14 -33 -38 -10q-41 36 -41 102 q0 47 20 108z" />
<glyph unicode="n" horiz-adv-x="786" d="M-49 193q31 94 129 275t199 329q12 18 22.5 17.5t20.5 -17.5q23 -39 23 -92q0 -46 -17 -103q78 84 165 146q79 56 125 56q4 0 9 -1q55 -9 83 -73q13 -30 14 -64q0 -38 -17 -80q-18 -39 -91 -165t-100 -183q-27 -58 -32 -108q-1 -12 -1 -22q1 -34 13 -56q16 -28 53 -25 q113 6 262 282q16 31 35 2q9 -14 9 -35q0 -37 -28 -94q-43 -88 -130 -153.5t-173 -65.5q-127 0 -166 86q-17 38 -17 84q0 60 28 135q29 84 91 192t99 172q26 44 26 61q0 7 -5 9q-12 4 -49 -13t-99.5 -65.5t-122.5 -113.5q-57 -61 -114.5 -156.5t-91 -165t-93.5 -198.5 q-14 -33 -39 -8q-40 40 -40 105q0 47 20 106z" />
<glyph unicode="o" horiz-adv-x="679" d="M12 286q12 118 84 246q61 109 149.5 184t176.5 83h11q41 1 67 -13q30 -16 61 -57q10 -14 35 -39.5t37 -41.5q13 -17 21 -55q5 -24 5 -53q0 -17 -2 -36q-2 -8 -2 -23.5t-2 -23.5q6 0 19.5 2t21.5 2q13 -1 13 -8q0 -5 -7 -13q-20 -23 -55 -26q-35 -139 -125 -267.5 t-198 -164.5q-39 -13 -75 -13q-103 0 -184 103q-53 81 -53 178q0 18 2 36zM136 216q-7 -40 -7 -70q0 -61 27 -83q18 -14 41 -15q36 0 87 36q83 58 154 192q45 84 72 164q-18 8 -39 25q-37 27 -64.5 77t-29.5 103q-96 -82 -158 -192q-63 -117 -83 -237zM479 641 q-3 -18 -3 -35q0 -65 48 -110q19 74 19 123q0 15 -2 28q-3 31 -17 40q-6 4 -12 4l-16 -8q-14 -13 -17 -42z" />
<glyph unicode="p" horiz-adv-x="796" d="M-229 -225q45 145 240.5 517t293.5 503q15 20 27 20q13 0 22 -22q13 -36 13 -86v-7q107 93 190 93q61 0 109 -50q56 -60 56 -160q0 -119 -79 -294q-94 -207 -215 -281q256 16 389 299q10 20 22.5 18.5t16.5 -18.5q4 -16 4 -32q0 -48 -31 -103q-111 -201 -364 -219 q-23 -1 -45 -1q-160 0 -244 77q-59 53 -70 137q-164 -299 -299 -612q-8 -18 -17 -18q-8 0 -17 13q-26 36 -26 94q0 56 24 132zM178 191v-7q0 -75 39 -112q14 -12 32 -12q41 0 101 62q86 89 162 243q59 123 74 231q5 31 5 55q0 59 -28 72q-8 4 -17 4q-37 0 -103 -55 q-83 -70 -152 -185q-45 -73 -70 -116q-41 -100 -43 -180z" />
<glyph unicode="q" horiz-adv-x="763" d="M3 129q-2 18 -2 37q0 57 19 127q27 94 89 184q113 166 228.5 248t201.5 82q63 0 96 -43q29 -38 29 -92v-13q55 98 88 132q27 27 51 -7q16 -33 16 -74q0 -79 -61 -188q-391 -698 -531 -1032q-8 -19 -19 -19q-8 0 -18 11q-27 31 -32 62q-2 7 -2 17q0 35 16 109 q41 141 143 350q-76 -51 -147 -51q-70 0 -113 45t-52 115zM144 86q8 -53 46 -53q117 0 295 311q122 211 122 302q0 21 -7 36q-8 18 -27 20h-4q-51 0 -144 -86q-97 -90 -179 -221q-53 -86 -81 -171q-22 -67 -22 -114q0 -13 1 -24z" />
<glyph unicode="r" horiz-adv-x="675" d="M-55 182q39 74 260 391q-40 26 -40 70q0 7 1 13q6 54 35.5 105.5t70.5 91.5t70 40q41 -6 41 -63v-11q-4 -68 -45 -172q94 12 211 94q37 25 55 4q23 -25 39 -55.5t16 -72.5t-26 -72q-184 -211 -225 -340q-15 -49 -16 -89q0 -24 6 -44q16 -54 61 -56h3q56 0 122 76 q68 78 118 195q14 29 29 2q9 -20 9 -45q0 -36 -19 -82q-35 -88 -114 -146q-74 -55 -151 -55h-10q-110 4 -152 91q-22 45 -22 99q0 49 19 105q49 150 246 375q-119 -78 -240 -78q-12 -23 -98 -167t-141.5 -257t-73.5 -197q-5 -21 -16 -21q-8 0 -19 11q-47 48 -47 115 q0 64 43 145z" />
<glyph unicode="s" horiz-adv-x="618" d="M-26 276q8 86 59 130q15 13 25 13q16 0 18 -34q2 -8 2 -24.5t2 -24.5q158 215 235 352q12 102 74 158q33 29 65 37q12 3 22 3q16 0 24 -9q8 -8 8 -23q0 -25 -25 -68q-2 -4 -22 -38q-3 -38 -3 -84q0 -80 9 -184q12 -143 12 -206v-16q-8 -160 -92 -215q172 63 275 285 q8 16 20 15t18 -15q6 -13 6 -30q0 -41 -34 -105q-57 -104 -153.5 -163t-209.5 -63h-20q-199 0 -283 154q-33 57 -33 127q0 14 1 28zM98 225q25 -92 67 -144q33 -41 71 -41q10 0 20 3q18 6 32.5 27.5t20.5 60.5q7 39 11 73q4 28 3 72v21q-1 59 -2.5 90t-5.5 93.5t-4 76.5 q-72 -131 -213 -332z" />
<glyph unicode="t" horiz-adv-x="438" d="M24 78q-21 46 -21 105q0 77 36 177q70 165 217 437q-94 0 -133 53q-14 20 -8 31.5t30 9.5h25q65 0 145 8q109 195 156 254q13 19 26 19h1q14 -1 22 -19q14 -35 14 -75q0 -69 -40 -156h5q84 0 122 -62q7 -13 7 -21q0 -18 -32 -18q-20 3 -44 3q-49 0 -116 -11 q-201 -344 -274 -508q-39 -91 -39 -161q0 -18 2 -34q12 -82 78 -85h3q66 0 142 84q78 86 139 210q6 12 14.5 17.5t16.5 1.5t12 -19q3 -11 3 -25q0 -37 -23 -91q-31 -70 -125 -154q-90 -80 -191 -80h-10q-111 3 -160 109z" />
<glyph unicode="u" horiz-adv-x="827" d="M-25 134q2 62 27 136q80 238 283 523q13 18 27 18q13 0 26 -16q27 -41 27 -92q0 -80 -66 -185q-92 -147 -160 -301q-29 -67 -29 -113v-12q4 -49 40 -53h5q102 0 298 315q63 102 142 248t112 191q17 24 32 24q10 0 19 -12q26 -31 28 -91q0 -3 1 -5q0 -58 -31 -134 q-18 -39 -93 -165.5t-101 -183.5q-28 -58 -34 -104q-2 -14 -2 -25q0 -29 12 -47q16 -26 52 -23q117 6 270 282q8 14 19.5 15.5t17.5 -13.5q8 -16 8 -37q0 -38 -26 -92q-47 -90 -133.5 -154.5t-174.5 -64.5q-96 -1 -139 55q-34 43 -34 110q0 18 3 38q-145 -193 -282 -193h-13 q-70 3 -102 51q-30 45 -29 103v7z" />
<glyph unicode="v" horiz-adv-x="614" d="M23 147q6 113 44.5 304.5t88.5 345.5q9 25 23 25q8 0 18 -9q49 -43 60 -105q4 -20 4 -44q0 -48 -15 -109q-8 -39 -35 -137.5t-43.5 -178.5t-28.5 -180q106 176 278.5 405.5t278.5 338.5q15 15 24 15q12 0 15 -23q1 -5 1 -10q0 -60 -85 -169q-14 -16 -115.5 -137 t-191.5 -240.5t-178 -258.5q-15 -23 -31 -23q-5 0 -10 2q-61 31 -84 70q-19 32 -19 91q0 13 1 27z" />
<glyph unicode="w" horiz-adv-x="1003" d="M-22 70q-8 31 -8 65q0 62 28 135q90 258 285 523q27 37 49 2q30 -40 30 -92q0 -78 -67 -185q-113 -178 -168 -311q-29 -71 -29 -118v-6q2 -46 34 -46h3q49 2 101.5 65.5t136.5 200.5q20 35 30 51q63 100 143.5 247t115.5 192q16 22 31 22q10 0 20 -10q25 -33 27 -91v-5 q0 -56 -31 -134q-20 -41 -96 -170t-103 -186q-38 -82 -38 -130v-7q3 -49 48 -51h2q53 0 135 89q84 91 168 236q16 143 63.5 253t88.5 154t67 50h4q16 1 24 -17q5 -11 5 -28q0 -11 -2 -25q-27 -133 -178 -389q-229 -387 -416 -387h-6q-63 1 -99 51q-32 45 -32 105v14 q-125 -160 -239 -160h-11q-92 5 -116 93z" />
<glyph unicode="x" horiz-adv-x="800" d="M41 -14q8 88 123 213q51 55 192 170q-51 346 -75 348h-2q-23 1 -73 -57q-52 -60 -93 -154q-6 -14 -17.5 -15.5t-15.5 11.5q-5 14 -5 32q0 33 17 78q31 78 109 138q65 50 126 49q12 0 25 -2q47 -8 70.5 -41t38.5 -103q16 -80 28 -176q199 162 308 301q13 20 27 20l1 1 q13 0 13 -25q0 -80 -111 -207q-43 -49 -223 -194q6 -39 17 -117t18 -106q23 -109 65 -113h3q51 0 107 77q58 79 113 193q6 14 16.5 15.5t14.5 -11.5q8 -18 8 -40q0 -39 -26 -89q-47 -94 -122 -154.5t-149 -60.5q-82 0 -127 54.5t-63 179.5q0 4 -3 24.5t-5 34.5 q-176 -147 -283 -280q-8 -10 -20 -16q-7 -3 -12 -2q-5 0 -9 2q-6 4 -6 16v6z" />
<glyph unicode="y" horiz-adv-x="768" d="M-208 -530q3 38 18 81q82 248 438 388q4 12 27.5 65t35.5 82q-110 -113 -210 -113h-13q-102 8 -124 103q-8 32 -8 65q0 63 28 129q86 252 278 518q14 18 26.5 18t24.5 -18q28 -38 28 -88q0 -77 -67 -184q-106 -170 -157 -299q-28 -69 -28 -116v-9q3 -49 38 -51h5 q104 0 282 303q29 49 118 215t130 225q17 23 33 23q9 0 18 -8q27 -35 27 -94q0 -55 -35 -136q-176 -338 -273 -563q219 119 363 316q8 12 19 11t13 -16q2 -9 2 -18q0 -42 -38 -100q-96 -154 -394 -275q-53 -129 -93 -216t-98.5 -192.5t-117.5 -172t-121 -88.5q-19 -8 -37 -8 q-46 0 -80 51q-18 29 -29 50t-21 53q-9 25 -9 53q0 8 1 16zM-109 -633q4 -5 10 -5q17 0 55 43q52 58 125 182.5t132 265.5q-123 -70 -207 -180.5t-110 -193.5q-14 -47 -14 -76q0 -23 9 -36z" />
<glyph unicode="z" horiz-adv-x="722" d="M-20 -419q2 36 20 77q92 213 420 348q5 24 5 45q0 38 -17 60q-13 22 -56 22q-18 -1 -44 -5q-82 -14 -156 -65q-27 -18 -35 3q-10 29 -10 55q0 82 98 137q145 84 245 177q102 93 134 164q17 38 17 66q0 24 -13 40q-16 20 -49 20q-56 0 -160 -57q-166 -90 -283 -236 q-10 -12 -18 -9t-12 15q-4 16 -4 34q0 32 13 72q21 62 75 115q133 129 296 150q29 4 54 4q38 1 66 -9q46 -16 83 -69q39 -56 39 -120q0 -71 -47 -152q-78 -133 -303 -275q7 0 13 1q73 0 116 -42q39 -37 53 -100q147 78 246 264q6 12 18.5 13.5t18.5 -13.5q5 -11 5 -25 q0 -38 -34 -102q-61 -113 -250 -194q0 -154 -117.5 -347.5t-224.5 -252.5q-29 -16 -56 -16q-44 0 -79 44q-20 27 -32.5 45.5t-24.5 50.5q-10 26 -11 55q1 6 1 12zM82 -512q4 -4 10 -4q22 0 72 54q64 70 134 186.5t103 214.5q-125 -70 -208.5 -172.5t-108.5 -176.5 q-13 -39 -13 -65q0 -24 11 -37z" />
<glyph unicode="{" horiz-adv-x="395" d="M8.5 73q-16.5 56 9.5 136q29 70 96.5 175t82.5 140q27 72 -9 105q-12 14 -9 30.5t24 18.5q63 4 106 65q29 39 104.5 205t112.5 223q78 117 222 91q12 -2 16 -8.5t0 -14.5t-14 -14q-47 -33 -96.5 -111t-109 -198.5t-65.5 -133.5q-77 -141 -194 -147q76 -82 0 -229 q-12 -27 -70.5 -120t-88.5 -163t-22 -113q4 -20 -5 -27.5t-25 3.5q-49 31 -65.5 87z" />
<glyph unicode="|" horiz-adv-x="458" d="M23 154q53 154 264 558t346 607q31 43 49 -2q47 -104 -68 -307q-422 -743 -553 -1071q-12 -31 -34 -5q-57 63 -4 220z" />
<glyph unicode="}" horiz-adv-x="626" d="M-14 -1q0 11 18 21q43 27 91 103t107.5 197.5t65.5 134.5q76 137 191 149q-74 76 0 217q10 20 73.5 124t94 176.5t20.5 113.5q-6 20 2 26.5t29 -1.5q55 -23 74.5 -71t-0.5 -114q-29 -84 -111 -211t-92 -155q-27 -72 10 -109q12 -14 4 -26.5t-33 -18.5q-51 -12 -94 -70 q-31 -39 -101.5 -196.5t-107.5 -212.5q-80 -119 -223 -92q-18 4 -18 15z" />
<glyph unicode="~" horiz-adv-x="473" d="M0 1372q10 35 45 64.5t80 33.5q39 4 102.5 -15t104.5 -27.5t112 16.5q16 8 24.5 0t0.5 -27q-33 -80 -109 -92q-55 -12 -169.5 21.5t-170.5 7.5q-14 -6 -19 -1t-1 19z" />
<glyph unicode="&#xa0;" horiz-adv-x="667" d="M336 1026q-6 6 0 21q27 66 117 77q39 6 98 6q18 31 50 83.5t42 71t31 7.5q20 -18 23 -54t-21 -93q-6 -12 -8 -15h129q34 1 20 -28q-37 -70 -139 -74h-66q-178 -309 -211 -379q-10 -23 -30 -2q-33 37 -4 127q27 80 125 254q-94 0 -136 -6q-14 -2 -20 4z" />
<glyph unicode="&#xa1;" horiz-adv-x="618" d="M276.5 946q4.5 80 45.5 160q37 70 92 109.5t114 39.5q66 0 111 -61q53 -72 47 -154q-4 -100 -66.5 -195t-148.5 -112q-96 -16 -160 72q-39 61 -34.5 141zM373.5 911.5q-13.5 -67.5 7.5 -90.5q23 -23 63.5 6t83.5 101q41 70 56.5 142.5t-0.5 86.5q-20 25 -71.5 -13 t-90.5 -104q-35 -61 -48.5 -128.5z" />
<glyph unicode="&#xa2;" horiz-adv-x="722" d="M124.5 418q-13.5 125 68.5 268q90 158 218 239.5t218 61.5q47 88 123 211q18 31 36 4q35 -53 -28 -182l-43 -86q45 -39 63 -80q8 -33 10.5 -54.5t-11 -57t-27 -60.5t-33 -61.5t-29.5 -61.5q-14 -37 -47 -16q-80 53 -33 170q6 14 18.5 39.5t20.5 45t16.5 40t8.5 35 t-10 20.5q-47 31 -172 -72.5t-189 -245.5q-53 -127 -43 -210.5t72 -106.5q59 -23 138 22.5t130 129.5q16 29 33 4q33 -57 -29 -138q-49 -63 -127 -86.5t-158 -1.5q-61 -117 -94 -188q-12 -33 -28 -6q-33 51 8 151q2 10 31 80q-98 68 -111.5 193z" />
<glyph unicode="&#xa3;" horiz-adv-x="727" d="M141 575q-12 27 15 27q55 -2 182 31q0 2 -9.5 28.5t-11.5 35t-7 34t-1 40.5t10.5 43t20.5 49.5t38.5 51t57.5 58.5q45 41 96.5 66.5t117 26.5t118.5 -40q57 -43 69.5 -101.5t-6 -104.5t-53.5 -81q-76 -76 -157 -57q-35 6 -11 31q66 70 106 155.5t13 102.5 q-25 14 -84 -16.5t-125 -88.5q-55 -49 -87 -111.5t-25 -109.5q31 8 63 8q45 2 79 -21.5t46 -58.5q6 -20 -12 -20q-53 0 -154 -14q14 -94 -49 -162q80 10 90 10q117 12 156 -80q10 -25 -17 -24q-158 -6 -356 -72q-37 -12 -57 12q-37 45 -52 64q-25 31 11 49q164 86 200 184 q-49 -14 -77 -16q-102 -8 -138 71z" />
<glyph unicode="&#xa4;" horiz-adv-x="2152" d="M7.5 242.5q19.5 117.5 101.5 238.5q113 166 227.5 247t200.5 81q59 0 90.5 -38t31.5 -93q43 72 72 108q27 37 49 13q27 -29 30 -87.5t-30 -138.5q-18 -37 -92 -167t-100 -189q-39 -86 -32 -138t56 -46q94 10 209 174t201 393q-57 20 -62.5 76.5t24.5 113t74 102.5t77 48 q23 2 33 -18.5t8 -57.5t-11.5 -82t-27.5 -98q98 10 225 96q43 29 61 6q23 -29 39.5 -61.5t17.5 -75.5t-28 -74q-180 -198 -233 -354q-29 -84 -14.5 -137t63.5 -57q86 -6 202.5 167t202.5 408q-55 20 -60 76.5t24.5 114t73.5 102.5t75 47q25 2 35 -18.5t8 -57.5t-11.5 -82 t-27.5 -98q100 12 225 98q43 29 62 4q23 -27 38 -58.5t15 -74.5t-27 -75q-180 -207 -231 -357q-29 -84 -13.5 -138t64.5 -58q59 -4 130 77.5t122 202.5q6 14 16.5 14.5t14.5 -12.5q27 -61 -6 -133q-41 -92 -123 -151.5t-164 -57.5q-117 2 -163 93.5t-7 215.5q45 152 256 392 q-123 -78 -246 -78q-242 -616 -500 -625q-113 -2 -157.5 90t-5.5 219q43 143 256 392q-119 -80 -246 -80q-236 -592 -502 -617q-84 -8 -129 40t-41 130q-133 -162 -260 -162q-92 0 -136 74t-24.5 191.5zM146.5 93q7.5 -52 46.5 -52q114 0 290 307q61 109 92 191t28 122.5 t-32 43.5q-51 4 -147 -85.5t-178 -220.5q-53 -86 -80 -170t-19.5 -136z" />
<glyph unicode="&#xa5;" horiz-adv-x="309" d="M99 497.5q-9 39.5 14 84.5q20 39 62 58t69 7q29 -12 38 -53t-16 -90q-25 -45 -61.5 -60.5t-65.5 0.5q-31 14 -40 53.5z" />
<glyph unicode="&#xa6;" horiz-adv-x="964" d="M211 688q-23 176 137 332q123 119 331 186.5t439 63.5q72 -2 117 -35t61 -76q13 -31 -24 -31h-33.5h-41h-38.5q-8 -61 -72 -170q-338 -563 -493 -952q-12 -31 -35 -4q-51 59 -10 203q43 145 185.5 424.5t285.5 490.5q-33 -2 -102 -14q-412 -684 -582 -1112 q-14 -37 -37 -8q-53 66 -12 202q31 109 121 295q-174 33 -197 205z" />
<glyph unicode="&#xa7;" horiz-adv-x="839" d="M-4 217q41 131 149.5 356.5t210.5 376.5q152 227 285 289q74 39 160 30t137 -75q59 -66 57.5 -164.5t-77.5 -200.5q-98 -129 -273 -196q47 -16 78 -43q80 -66 61.5 -188.5t-133.5 -251.5q-141 -158 -307 -173q-104 -6 -166 64q-12 14 -8 23.5t25 9.5q86 -2 182 45 t164 125q80 94 114.5 181t0 120t-125.5 14q-82 -16 -131 72q-20 33 17 43q76 23 145.5 57.5t120.5 72.5t93 80t66.5 82t38 75.5t12.5 65.5t-18 48q-23 27 -54.5 29t-66 -17.5t-68.5 -46t-67.5 -63.5t-55 -63.5t-40.5 -53.5q-102 -143 -246.5 -419.5t-238.5 -522.5 q-14 -33 -33 -6q-53 80 -8 225z" />
<glyph unicode="&#xa8;" horiz-adv-x="1161" d="M150 559q0 137 58 270.5t148 228.5t190.5 160.5t186.5 84.5q176 37 273 -58q82 -37 131 -105.5t60 -150.5t0 -164.5t-44 -160.5q-55 -135 -148.5 -207t-191.5 -72q-94 0 -163.5 61.5t-100.5 178.5q-49 -88 -113 -219q-14 -33 -33 -7q-49 66 -4 181q49 131 201 381 q-29 20 -43 49q-12 25 16 30q43 8 134.5 42t136.5 36q113 4 155 -108q37 -111 -41 -213q-41 -53 -119.5 -100.5t-160.5 -69.5q20 -82 60 -129t81 -49q49 -2 107.5 54t113.5 179q78 182 51.5 327.5t-126.5 188.5q-111 47 -275 -29.5t-295 -259.5q-88 -125 -119.5 -261 t-4 -239.5t103.5 -142.5q92 -39 191.5 -17.5t166.5 81.5q31 27 31 -6q0 -72 -82 -121q-51 -31 -116.5 -36t-112.5 4t-82 26q-221 96 -221 362zM610 733q145 39 242.5 120t79.5 132q-2 8 -10.5 12t-19.5 4t-23.5 -1t-30 -7t-30.5 -10t-34.5 -11t-31.5 -11 q-102 -162 -142 -228z" />
<glyph unicode="&#xa9;" horiz-adv-x="1126" d="M176 555q-6 137 49.5 272.5t143.5 233.5t188 165.5t186 86.5q177 38 271 -60q109 -47 151.5 -150.5t28.5 -216t-68 -218.5q-76 -154 -204.5 -241t-270.5 -81q-180 8 -232 145.5t54 311.5q94 160 210 232.5t185 31.5q66 -41 93 -100q8 -29 9 -47.5t-11.5 -52t-22.5 -56.5 t-28.5 -57.5t-26.5 -57.5q-8 -18 -14.5 -21t-24.5 5q-33 16 -43.5 56t10.5 98q6 16 17.5 38.5t18.5 37t14 33t6 26.5t-7 16q-16 12 -57 -12.5t-94.5 -84t-96.5 -132.5q-80 -145 -66.5 -243.5t99.5 -102.5q100 -6 197.5 74.5t165.5 209.5q41 78 64.5 172.5t9 192.5t-88.5 139 q-109 61 -282.5 -16.5t-298.5 -268.5q-125 -201 -122 -392t120 -261q96 -47 191 -34.5t175 65.5q10 6 15.5 8t8.5 -3t3 -17q-4 -68 -94 -105q-166 -68 -332 31q-188 113 -199 350z" />
<glyph unicode="&#xaa;" horiz-adv-x="1181" d="M344 1204q-4 12 1 18.5t20 4.5q80 -14 242.5 21.5t193.5 37.5q125 12 178 -92q6 -10 1 -20.5t-22 -8.5q-84 9 -215 -24q-199 -276 -337 -572q-14 -33 -35 -2q-49 66 -2 178q45 113 196 359q-6 0 -17 -1t-18 -3q-72 -8 -121 22.5t-65 81.5zM580 651q31 76 106.5 216.5 t144.5 242.5q23 35 52 4q47 -51 57 -65q12 -16 4 -82q-2 -16 -15.5 -97.5t-19.5 -128.5q170 240 336 387q29 27 51 0q29 -35 43 -86q13 -45 -16 -92q-147 -244 -242 -463q-10 -27 -30 -4q-53 61 -9 179q37 92 93 194q-137 -162 -254 -338q-14 -20 -41 -4q-61 39 -60 127 q23 176 25 184q-117 -197 -191 -350q-14 -33 -32 -6q-49 66 -2 182z" />
<glyph unicode="&#xab;" horiz-adv-x="366" d="M10 1303q-25 14 0 32q154 100 195 119q75 33 149 -6q10 -6 12.5 -15.5t-12.5 -17.5q-197 -98 -235 -110q-70 -20 -109 -2z" />
<glyph unicode="&#xac;" horiz-adv-x="329" d="M-6 1408.5q-6 28.5 8 61.5q16 33 43 51.5t49 8.5q25 -10 32 -39t-7 -61q-16 -33 -43 -50.5t-51 -9.5q-25 10 -31 38.5zM227.5 1411q-8.5 31 6 63.5t42 50t54.5 9.5q25 -8 32 -38t-8 -64q-12 -31 -40.5 -49.5t-53 -10.5t-33 39z" />
<glyph unicode="&#xad;" horiz-adv-x="1974" d="M30.5 125q-61.5 158 41.5 354q92 180 224 268.5t214 40.5q84 -51 121 -104q27 -33 9.5 -116t-77.5 -158q-78 -98 -171 -119t-206 57q-47 -139 -18 -227t108 -92q156 -6 309.5 168t252.5 401q-55 23 -57.5 80t30.5 113.5t78 101.5t76 47q25 0 34 -21.5t5.5 -57.5 t-14.5 -81t-32 -96q102 14 222 96q43 29 57 6q25 -29 41 -60.5t17 -74.5t-27 -76q-187 -211 -234 -356q-25 -84 -10.5 -138t61.5 -56q88 -2 205 170t205 407q-57 20 -61 76.5t25.5 113t73.5 102.5t75 48q25 2 36 -18.5t8 -57.5t-13.5 -82t-28.5 -98q102 10 229 96 q39 27 57 6q25 -29 41.5 -60.5t17.5 -74.5t-28 -75q-195 -219 -235 -355q-25 -84 -10.5 -140t61.5 -58q61 -2 133 79.5t121 202.5q6 14 17 14.5t16 -12.5q23 -53 -11 -133q-39 -92 -120.5 -151.5t-165.5 -57.5q-115 2 -160 93.5t-6 215.5q43 143 256 392q-121 -80 -246 -80 q-252 -614 -504 -625q-113 -4 -158 91.5t-6 224.5q47 154 254 385q-123 -78 -245 -78q-135 -283 -297 -449t-336 -168q-193 -2 -254.5 156zM205 393q29 -18 58.5 -20t52 6t48 28.5t42.5 40t40 46.5q49 63 75 129.5t7 83.5q-23 20 -77 -11.5t-119.5 -104.5t-108.5 -163 q-4 -6 -9 -17.5t-9 -17.5z" />
<glyph unicode="&#xae;" horiz-adv-x="1333" d="M16 -18q-45 70 35 223q25 49 62 100q-49 23 -64 57q-6 12 -6 18.5t6 9.5t21 3q31 -2 108 6q150 205 360 427.5t375 334.5q57 41 123 56q236 49 414 53q137 2 180 -103q6 -14 0 -23t-24 -7q-141 12 -435 -56q-131 -211 -290 -508q86 16 161 21q135 2 168 -105 q10 -31 -24 -30q-158 2 -393 -56q-96 -199 -134 -286q168 51 311.5 59t182.5 -98q12 -31 -20 -31q-141 4 -443 -76q-43 -12 -65.5 -9t-38.5 28q-37 57 -47 78q-27 51 0 118q39 100 73 179q-239 -64 -350 -74q-131 -168 -213 -309q-14 -27 -33 0zM389 446q47 12 150.5 43 t152.5 43q121 240 295 525q-283 -242 -598 -611z" />
<glyph unicode="&#xaf;" horiz-adv-x="1075" d="M82 365q0 154 63.5 309t158.5 271t198.5 198t191.5 112q180 59 277 -43q47 -18 65 -41q80 84 131 129q33 29 39 -6q12 -76 -98 -213q-2 0 -2 -2q53 -139 24.5 -311t-118.5 -342q-133 -248 -316.5 -379t-378.5 -61q-61 20 -106 65q-61 -80 -98 -131q-20 -31 -29 4 q-14 57 45 168q10 10 16 27q-63 106 -63 246zM225 238q272 379 756 878q-18 41 -53 53q-82 33 -248 -78.5t-301 -320.5q-86 -133 -125 -276t-29 -256zM262 117q23 -39 55 -54q104 -45 263 73t282 345q148 277 148 488q-35 -39 -158 -172t-197.5 -217t-188.5 -216.5 t-204 -246.5z" />
<glyph unicode="&#xb0;" horiz-adv-x="1765" d="M-9.5 44q-39.5 91 7.5 218q43 125 129 275.5t137 222.5q27 35 49 12q25 -27 27 -86t-29 -139q-16 -37 -81.5 -150.5t-94.5 -187.5q-23 -57 -29 -100t7.5 -64.5t44.5 -19.5q104 10 241.5 173.5t221.5 395.5q-45 16 -56.5 57t7 87t49 91t67.5 75t61.5 30t34 -20.5t4 -58.5 t-17.5 -82t-31 -95q98 10 226 96q43 27 57 6q23 -25 40 -58.5t18 -77.5t-27 -75q-193 -213 -236 -354q-25 -84 -8.5 -137t63.5 -58q90 -6 215 170.5t199 405.5q-57 20 -63 76.5t24.5 114t74.5 103.5t74.5 48t41 -36t1.5 -97.5t-34 -122.5q98 12 219 96q41 29 62 4 q23 -25 39 -57.5t17 -76.5t-28 -75q-182 -201 -233 -356q-27 -84 -12.5 -138t63.5 -59q59 -2 130 80t124 203q14 33 31 0q25 -55 -9 -133q-41 -92 -121.5 -150.5t-164.5 -56.5q-115 4 -161 93t-7 216q47 158 256 390q-123 -78 -250 -78q-6 -14 -42 -86t-48.5 -95.5t-46 -89 t-53 -93t-53.5 -79t-60.5 -75t-61 -52t-68.5 -41t-69 -12.5q-115 -2 -160 90t-6 219q51 162 260 394q-123 -82 -252 -82q-106 -246 -253.5 -423t-301.5 -194q-115 -12 -154.5 79zM325.5 912q4.5 40 29 67t61.5 11.5t57 -56.5q35 -72 -14 -135q-18 -25 -55 -16.5t-60 46.5 q-23 43 -18.5 83z" />
<glyph unicode="&#xb1;" horiz-adv-x="1957" d="M11.5 287q11.5 119 84.5 245q66 113 152 188t174 79q49 4 78.5 -10.5t60.5 -57.5q12 -16 36 -40.5t36 -41t21.5 -53.5t4.5 -90q0 -14 -6 -31q100 10 160 125q-53 23 -54 80t31.5 113.5t78.5 100.5t77 44q25 0 35 -24.5t4 -64.5t-17.5 -81t-27.5 -84q100 14 221 94 q43 27 60 6q23 -25 40 -57.5t17 -75.5t-27 -73q-188 -212 -235 -357q-29 -84 -14.5 -140t67.5 -56q86 0 204 171t206 404q-57 20 -62.5 76.5t25.5 114t75 102.5t74 47q45 -4 43 -75.5t-41 -180.5q100 12 226 98q41 29 61 4q23 -27 39 -58.5t17 -74.5t-27 -75 q-180 -203 -234 -357q-29 -84 -13.5 -138t64.5 -58q59 -4 130 77.5t124 202.5q16 35 31 2q25 -57 -8 -133q-41 -94 -122 -153.5t-165 -55.5q-115 6 -161 95.5t-7 213.5q49 160 256 392q-123 -78 -245 -78q-246 -616 -502 -625q-115 -2 -161 91t-7 220q49 158 256 390 q-117 -76 -250 -76q-96 -162 -252 -170q-35 -141 -125 -269.5t-196 -162.5q-158 -53 -261 86q-61 96 -49.5 215zM134 221q-19 -119 22 -153q43 -39 126 18t154 190q47 89 74 173q-59 31 -96 87t-39 113q-88 -78 -156 -194q-66 -115 -85 -234zM477 641q-10 -86 49 -133 q18 90 13 141q-4 31 -17.5 40t-27 -5t-17.5 -43z" />
<glyph unicode="&#xb2;" horiz-adv-x="2129" d="M-25 134.5q2 60.5 25 135.5q70 219 283 514q27 37 51 2q72 -96 -39 -270q-102 -160 -158 -303q-27 -66 -25.5 -120t35.5 -56q100 -8 302 315q63 102 141 245.5t110 186.5q27 37 52 13q27 -27 28.5 -86.5t-30.5 -139.5q-20 -45 -94 -171t-99 -179q-25 -57 -32 -102 t7.5 -68.5t45.5 -19.5q96 12 209.5 176t199.5 393q-57 20 -61 76.5t25.5 114t73.5 102.5t75 47q25 2 35 -18.5t8 -57.5t-12.5 -82t-28.5 -98q104 12 227 98q39 29 60 4q23 -27 40 -59.5t17 -75.5t-27 -73q-192 -222 -235 -357q-25 -84 -9.5 -140t62.5 -56q90 0 208 170 t206 405q-57 20 -61.5 76.5t25.5 114t74 102.5t74 47q23 2 33 -18.5t8 -57.5t-11 -82t-28 -98q100 12 226 98q41 29 61 4q23 -27 39 -58.5t17 -74.5t-27 -75q-184 -209 -234 -357q-27 -84 -12.5 -138t63.5 -58q59 -4 130 76.5t124 203.5q16 33 31 2q25 -57 -8 -133 q-41 -94 -122 -153.5t-165 -55.5q-115 6 -161 95.5t-9 213.5q43 147 256 392q-119 -78 -241 -78q-47 -115 -98.5 -214.5t-117 -196.5t-141.5 -154.5t-151 -57.5q-115 0 -160 91t-6 218q49 160 256 392q-123 -78 -246 -78q-244 -596 -502 -619q-90 -8 -135 46.5t-37 144.5 q-154 -197 -286 -187q-72 6 -104 53.5t-30 108z" />
<glyph unicode="&#xb3;" horiz-adv-x="1501" d="M9.5 246q19.5 119 101.5 237q115 166 229.5 248t200.5 82q57 0 89 -39t32 -96q43 72 71 113q27 39 49 12q27 -31 30 -88.5t-28 -136.5q-18 -43 -94 -172.5t-100 -184.5q-37 -88 -31 -139t53 -47q98 10 219 175t193 390q-57 20 -63.5 77.5t24.5 115t75 103.5t75 48 q23 2 33 -17.5t6.5 -57.5t-13.5 -82t-26 -101q104 12 227 96q39 29 61.5 4.5t39 -57.5t16.5 -75t-27 -74q-188 -217 -233 -357q-27 -84 -11.5 -138t62.5 -58q61 -4 130.5 77.5t123.5 204.5q6 12 15 13.5t15 -13.5q25 -57 -8 -133q-41 -92 -122 -151.5t-164 -57.5 q-115 4 -160 94.5t-8 217.5q47 154 254 385q-129 -76 -242 -76q-86 -246 -219 -424t-285 -191q-82 -6 -128 41t-44 127q-127 -164 -258 -164q-92 0 -136 75t-24.5 194zM146.5 97.5q7.5 -52.5 46.5 -52.5q59 -2 134.5 80t157.5 227q145 258 113 336q-7 19 -27 21 q-49 4 -146 -86.5t-179 -221.5q-53 -86 -80 -168.5t-19.5 -135z" />
<glyph unicode="&#xb4;" horiz-adv-x="1314" d="M24.5 128q-61.5 159 41.5 353q94 182 227 270.5t213 39.5q78 -47 112 -115q10 -31 12.5 -53.5t-10 -58.5t-24.5 -61.5t-29.5 -63.5t-27.5 -64q-8 -23 -14.5 -27t-28.5 6q-39 20 -53.5 64.5t3.5 113.5q6 18 18.5 45t22 46.5t18.5 42t8 33t-9 20.5q-18 14 -67.5 -18.5 t-110 -106.5t-105.5 -164q-80 -172 -61.5 -284.5t112.5 -116.5q156 -6 314.5 171t251.5 402q-55 20 -58.5 77.5t29.5 115t78 102.5t78 45q45 -8 38.5 -77.5t-47.5 -178.5q106 14 224 98q41 31 61 4q23 -27 38 -58.5t16 -74.5t-27 -75q-188 -213 -232 -357 q-29 -84 -13.5 -138t64.5 -58q59 -4 130 77.5t122 202.5q16 35 31 2q23 -51 -10 -133q-39 -92 -120 -152.5t-163 -56.5q-117 6 -163 95.5t-7 216.5q47 154 256 387q-127 -76 -248 -76q-121 -272 -287.5 -446.5t-348.5 -174.5q-193 0 -254.5 159z" />
<glyph unicode="&#xb5;" horiz-adv-x="1320" d="M31.5 130q-62.5 159 40.5 355q92 182 225 269.5t215 40.5q80 -47 121 -105q29 -35 10.5 -116.5t-78.5 -157.5q-78 -100 -171 -121t-206 59q-47 -139 -18 -229t109 -94q156 -6 310 170t253 403q-55 23 -57.5 80t30.5 114.5t78 101.5t78 46q45 -8 39 -77.5t-47 -178.5 q100 14 223 96q43 29 57 7q25 -27 41 -60t17.5 -77t-27.5 -74q-188 -209 -236 -357q-25 -84 -10.5 -139t62.5 -57q61 -2 132.5 79.5t123.5 202.5q16 33 30 2q25 -53 -10 -133q-39 -92 -121 -153.5t-166 -57.5q-115 6 -160 96.5t-6 217.5q49 160 254 387q-123 -78 -245 -78 q-135 -283 -298 -450t-337 -169q-193 -2 -255.5 157zM207 399q29 -18 58.5 -20t52 6t48 28.5t43 40t40.5 46.5q49 63 75.5 129.5t5.5 83.5q-23 20 -77 -11.5t-119.5 -104.5t-110.5 -163q-2 -4 -7 -16.5t-9 -18.5z" />
<glyph unicode="&#xb6;" horiz-adv-x="1159" d="M-184 -307q39 301 277.5 763t477.5 816q31 43 50 -2q45 -111 -70 -307q-6 -12 -89 -148.5t-140.5 -239t-106.5 -198.5q145 -39 133 -254q-2 -10 -3 -28.5t-1 -28.5q92 57 182 202.5t156 331.5q-57 20 -62.5 76.5t25.5 114t74 103.5t76 48q23 2 33 -19.5t8 -58.5 t-11.5 -82t-27.5 -98q98 10 225 96q39 31 61 6q23 -27 39.5 -59.5t17.5 -75.5t-28 -73q-178 -197 -233 -355q-29 -84 -13.5 -139t64.5 -59q59 -2 129.5 79.5t124.5 202.5q14 33 30 0q23 -51 -10 -133q-39 -92 -119.5 -150.5t-166.5 -56.5q-115 2 -160 93.5t-6 215.5 q49 160 254 388q-123 -76 -244 -76q-72 -205 -184.5 -369t-243.5 -217q-27 -160 -93.5 -320.5t-142.5 -254.5q-96 -119 -198 -27q-109 96 -84 293zM-72 -526q31 -39 113 104q99 175 154 402q-92 10 -125 79q-92 -217 -133 -379.5t-9 -205.5zM150 154q0 -113 57 -119 q14 76 18 149q2 37 -3 70t-13 50.5t-16 12.5q-16 -6 -29.5 -64t-13.5 -99z" />
<glyph unicode="&#xb7;" horiz-adv-x="1470" d="M-148.5 -553q-7.5 53 15.5 107q80 244 440 389q29 73 58 139q-106 -106 -209 -107q-92 0 -135.5 75t-23 193.5t102.5 237.5q115 166 228.5 248t197.5 82q59 0 92 -39t31 -96q53 90 70 112q27 41 51.5 10.5t25.5 -87t-34 -138.5q-188 -379 -268 -555q338 174 491 582 q-53 23 -54 80t31.5 114.5t77.5 101.5t76 46q25 2 36 -18.5t7 -57.5t-15 -83t-32 -99q102 18 221 96q39 31 60 4q25 -25 41 -57.5t17 -74.5t-28 -74q-190 -213 -235 -357q-27 -84 -11.5 -139t62.5 -57q59 -2 131 79.5t125 202.5q6 12 15.5 13.5t15.5 -13.5q23 -55 -10 -133 q-39 -92 -121 -151.5t-166 -57.5q-115 4 -160 95.5t-6 215.5q47 152 256 390q-125 -80 -248 -80q-106 -242 -242.5 -400.5t-371.5 -255.5q-57 -133 -96 -217t-97.5 -192.5t-119 -174t-119.5 -89.5q-72 -29 -117 43q-25 39 -37 66.5t-19.5 80.5zM-51 -631q14 -20 64 37 t123 181.5t136 269.5q-125 -74 -210 -183.5t-109.5 -192.5t-3.5 -112zM136 95q7 -52 46 -52q107 0 289 307q63 106 94 189.5t28 124.5t-32 43q-51 4 -147.5 -86.5t-177.5 -221.5q-53 -86 -80 -169t-20 -135z" />
<glyph unicode="&#xb8;" horiz-adv-x="1103" d="M-4.5 50q-38.5 91 6.5 218q39 123 125 272.5t139 225.5q27 37 49 12q25 -27 27 -86t-29 -139q-16 -39 -81.5 -151.5t-94.5 -184.5q-37 -88 -31.5 -140t54.5 -46q104 12 242.5 176t220.5 393q-45 16 -55.5 57t8 88.5t48 91.5t66.5 73.5t61.5 29.5t34 -20.5t4 -58.5 t-18 -82t-30.5 -95q100 10 226 96q41 31 61 6q23 -25 38 -57.5t15 -75.5t-26 -73q-188 -217 -232 -359q-29 -84 -13.5 -140t64.5 -58q59 -2 130 80.5t122 203.5q6 14 15.5 14.5t15.5 -14.5q23 -51 -10 -133q-39 -92 -120 -150.5t-167 -56.5q-115 2 -160 92.5t-6 216.5 q51 162 260 394q-123 -82 -252 -82q-109 -246 -254 -423t-301 -194q-113 -12 -151.5 79zM327.5 918.5q4.5 39.5 29 66.5t61.5 11.5t57 -56.5q35 -72 -14 -135q-18 -25 -55 -16.5t-60 47.5q-23 43 -18.5 82.5z" />
<glyph unicode="&#xb9;" horiz-adv-x="1048" d="M-629 -552q2 38 17 81q45 131 163.5 230.5t280.5 156.5q242 586 416 850q25 39 51 12q25 -27 26 -86t-32 -139q-16 -37 -121 -243.5t-156 -321.5q373 166 549 614q-53 20 -55 77.5t31.5 114t78 100.5t74.5 46q25 2 35 -18.5t7 -57.5t-15 -82t-31 -98q104 14 219 96 q41 29 62 6q23 -27 39 -58.5t17 -74.5t-28 -75q-182 -207 -233 -359q-27 -82 -11.5 -138t62.5 -58q59 -2 131 80.5t123 203.5q14 33 31 0q25 -55 -8 -133q-39 -92 -121 -150.5t-166 -56.5q-115 2 -161 92.5t-7 216.5q49 158 254 388q-123 -76 -242 -76q-109 -250 -255 -414 t-414 -272q-72 -170 -128.5 -288t-140.5 -234.5t-159 -145.5q-74 -29 -119 39q-20 29 -31.5 50.5t-23 54t-9.5 70.5zM-524 -655q14 -18 65 40t123 181t133 264q-123 -70 -207 -180.5t-109.5 -194.5t-4.5 -110zM309 917.5q4 40.5 31 67.5q25 25 62 10.5t55 -55.5 q37 -80 -13 -137q-18 -25 -54 -15.5t-60 46.5q-25 43 -21 83.5z" />
<glyph unicode="&#xba;" horiz-adv-x="1406" d="M-16 221q43 150 243.5 540t331.5 570q31 43 53 2q51 -98 -57 -295q-25 -43 -90.5 -157.5t-91.5 -163.5q92 90 178 114q59 16 99 -5t71 -87q63 -135 -43 -237q-121 -115 -285 -168q6 -123 45 -207t88 -86q78 -4 203 168t201 389q-57 20 -62.5 77.5t25.5 115t75 103.5 t74 48q25 2 35 -19.5t8 -58.5t-11 -83t-27 -99q98 14 225 98q39 31 57 4q23 -25 40 -57.5t17 -74.5t-26 -74q-193 -221 -236 -357q-25 -84 -10.5 -139t62.5 -57q61 -2 132.5 79.5t123.5 202.5q6 12 15 13t15 -13q23 -53 -10 -133q-39 -92 -121 -151.5t-166 -57.5 q-115 4 -159.5 95.5t-6.5 215.5q47 150 256 390q-123 -78 -245 -78q-59 -152 -133 -283t-176.5 -229.5t-196.5 -95.5q-115 4 -188.5 101t-71.5 292q0 29 8 40t37 19q90 29 165.5 76t119.5 92t64.5 86t8.5 62q-12 29 -76.5 9t-146.5 -81q-111 -84 -195 -227.5t-211 -444.5 q-14 -31 -32 -8q-51 63 -2 225z" />
<glyph unicode="&#xbb;" horiz-adv-x="1296" d="M11.5 289q11.5 117 80.5 246q59 109 149.5 183.5t180.5 82.5q78 8 137 -70q10 -14 36 -39.5t37 -41t20.5 -53.5t4.5 -91q0 -4 -2 -15.5t-2 -17.5q100 18 160 127q-53 23 -54 80t31.5 113.5t77.5 100.5t76 44q25 0 35 -23.5t4 -63.5t-17.5 -82t-27.5 -87q98 14 221 98 q41 29 62 4q23 -27 38 -58.5t16 -74.5t-28 -76q-178 -203 -231 -356q-29 -84 -13.5 -138t64.5 -58q59 -4 129 78.5t123 201.5q6 14 15 16.5t16 -12.5q26 -63 -7 -133q-43 -94 -122.5 -154.5t-163.5 -56.5q-117 6 -163 95t-7 218q41 139 256 390q-125 -80 -248 -80 q-100 -160 -254 -166q-33 -141 -122 -270.5t-197 -163.5q-51 -25 -128 -5.5t-133 93.5q-61 98 -49.5 215zM132 219q-19 -119 22 -153q43 -37 125.5 21t156.5 192q52 97 72 167q-59 33 -95 89.5t-38 111.5q-92 -78 -158 -192q-66 -117 -85 -236zM475 641q-10 -84 51 -135 q16 84 11 143q-4 33 -17.5 41t-27 -6t-17.5 -43z" />
<glyph unicode="&#xbc;" horiz-adv-x="1374" d="M-49 199q23 41 69 110.5t115.5 172t87.5 128.5q-47 27 -42 82.5t36 110.5t76 97t74 42q47 -4 43 -76.5t-50 -179.5q96 14 222 96q39 27 61 4q23 -25 40 -58.5t17 -75.5t-26 -72q-190 -213 -236 -357q-27 -84 -11.5 -141t62.5 -55q88 2 206 173t204 400q-57 20 -62.5 77.5 t25.5 115t75 102.5t75 47q45 -4 43 -76.5t-41 -181.5q104 14 225 98q39 29 61.5 4.5t39 -57.5t16.5 -76t-27 -73q-182 -205 -233 -357q-29 -84 -13.5 -138t64.5 -58q59 -4 130 77.5t124 202.5q14 33 31 0q24 -53 -9 -133q-39 -92 -120.5 -150.5t-165.5 -56.5 q-115 2 -161 93.5t-7 215.5q51 166 256 390q-123 -76 -246 -76q-246 -616 -506 -625q-115 -2 -158 90t-6 221q45 154 260 390q-127 -76 -252 -76q-18 -35 -103 -180.5t-144.5 -266t-77.5 -209.5q-8 -37 -39 -10q-94 100 -2 275z" />
<glyph unicode="&#xbd;" horiz-adv-x="1234" d="M-23.5 275.5q7.5 84.5 60.5 125.5q41 31 43 -20q0 -33 2 -47q137 182 235 350q10 102 70 156q33 31 65.5 38t45.5 -8q23 -23 -17 -90q-2 -4 -9 -17t-11 -20q-6 -98 7 -259.5t9 -225.5q-8 -150 -80 -205q96 49 190.5 196.5t170.5 350.5q-57 20 -62.5 77.5t25.5 115 t75 102.5t74 47q25 2 35 -19.5t8 -58.5t-11 -82t-28 -98q102 14 226 96q39 33 61 6q23 -25 38 -57.5t15 -75.5t-26 -73q-195 -223 -236 -357q-25 -84 -10.5 -140t62.5 -58q61 -2 132.5 79.5t123.5 202.5q6 14 15 14.5t15 -14.5q23 -51 -10 -133q-39 -92 -120 -150.5 t-167 -56.5q-115 2 -160 93.5t-6 215.5q49 158 256 390q-123 -76 -245 -76q-47 -119 -90 -207t-102.5 -181t-134.5 -151.5t-159 -77.5q-109 -23 -201 15.5t-143 134.5q-39 68 -31.5 152.5zM100 225q25 -94 68 -146t92 -36q25 8 40 44t18.5 103.5t3.5 115.5t-4.5 136.5 t-4.5 108.5q-94 -160 -213 -326z" />
<glyph unicode="&#xbe;" horiz-adv-x="1136" d="M5 128q-9 71 18.5 164t89.5 183q115 166 229.5 248t198.5 82q59 0 93 -42t30 -101q33 66 71 120q27 39 51 13q23 -23 27 -88q150 104 236 47q43 -27 71 -72q29 -35 11.5 -117t-76.5 -157q-80 -100 -179.5 -119t-216.5 67q-63 -119 -71 -137q-94 -207 102 -207 q170 0 279.5 82t201.5 219q8 12 19.5 11.5t15.5 -13.5q6 -14 -3 -53t-34 -76q-152 -223 -485 -223q-125 0 -187.5 48t-66.5 130q-131 -170 -264 -170q-68 0 -110 45t-51 116zM145.5 84q6.5 -53 47.5 -53q55 -2 130.5 83t159.5 230q63 109 93 190.5t28 122.5t-31 43 q-53 4 -149 -85t-176 -220q-53 -88 -81 -173t-21.5 -138zM684 397q37 -27 73 -28.5t69.5 20t56 45t51.5 58.5q53 68 78.5 131t5 81.5t-72.5 -10t-118.5 -100.5t-121.5 -166q-4 -4 -11.5 -14.5t-9.5 -16.5z" />
<glyph unicode="&#xbf;" horiz-adv-x="675" d="M11.5 295q13.5 115 82.5 237q63 111 150.5 185t175.5 82q84 8 139 -70l4 -4q23 20 54.5 54t37.5 40q14 14 25.5 12t13.5 -20q5 -54 -69 -160q37 -49 30 -151q-10 -154 -110.5 -317t-225 -201.5t-219.5 47.5q-10 -12 -27.5 -38t-21.5 -32q-6 -8 -12 -10t-10 2t-6 14 q-8 47 30 119q-55 96 -41.5 211zM131 205q158 221 397 479l-6 4q-45 39 -140 -35.5t-165 -199.5q-68 -119 -86 -248zM141 80q2 -6 13 -17q41 -35 123.5 23.5t160.5 189.5q77 132 97 263q-49 -59 -187.5 -217t-206.5 -242z" />
<glyph unicode="&#xc0;" horiz-adv-x="755" d="M8.5 172q-18.5 107 40.5 236q53 111 145.5 188.5t233.5 153.5q182 100 236 297q8 35 36 6q25 -25 32 -69t-17 -122q-29 -66 -86.5 -120t-171.5 -119q-205 -117 -295 -310q-23 -47 -34 -94t-5 -92t37 -61q78 -41 195.5 69.5t207.5 292.5q18 35 39 6q27 -29 21.5 -104.5 t-54.5 -153.5q-86 -137 -214 -187t-242 19q-86 57 -104.5 164zM700 1151q-33 84 13 131q18 23 54 15.5t58 -44.5q23 -41 19 -82t-28.5 -67.5t-62 -11t-53.5 58.5z" />
<glyph unicode="&#xc1;" horiz-adv-x="649" d="M125 -63q-49 109 61 309q254 455 389 751q14 29 35 9q63 -68 6 -224q-63 -170 -196 -428t-244 -422q-12 -18 -27.5 -17t-23.5 22zM637 1085q-33 70 14 132q18 25 55 15.5t58 -44.5q23 -41 19.5 -82t-29.5 -68q-23 -25 -60 -10.5t-57 57.5z" />
<glyph unicode="&#xc2;" horiz-adv-x="1140" d="M12 76.5q-51 107.5 15 283.5q66 162 217 433q-94 2 -131 57q-14 20 -7 31.5t29 9.5q53 -4 168 6q115 205 156 254q31 47 49 0q37 -90 -29 -236q86 -6 123 -71q8 -16 1 -24.5t-30 -6.5q-72 4 -147 -2q-221 -385 -276 -508q-51 -115 -37 -196.5t80 -79.5q94 4 232 172 t232 401q-53 20 -55 77.5t31 115t79 102.5t76 47q47 -4 42 -75.5t-50 -180.5q96 8 224 94q39 31 59 4q25 -25 41 -57.5t17 -74.5t-27 -74q-190 -213 -236 -357q-27 -84 -11.5 -139t62.5 -57q59 -2 131 79.5t125 202.5q6 12 15.5 13.5t15.5 -13.5q23 -55 -10 -133 q-39 -92 -121 -151.5t-166 -57.5q-115 4 -160 95.5t-6 215.5q49 160 256 390q-125 -78 -250 -78q-115 -260 -264 -439.5t-299 -179.5q-113 0 -164 107.5z" />
<glyph unicode="&#xc3;" horiz-adv-x="1466" d="M-22.5 136.5q2.5 62.5 26.5 133.5q84 250 283 518q27 33 47 3q72 -98 -35 -275q-129 -217 -162 -299q-31 -76 -27.5 -124t37.5 -52q106 -8 304 311q61 100 139 245.5t112 190.5q27 35 50 13q27 -29 28.5 -87.5t-30.5 -138.5q-18 -41 -93 -166.5t-100 -183.5 q-39 -88 -32 -141t55 -49q94 8 208.5 172t200.5 393q-57 20 -62 77.5t25.5 115t74.5 103.5t75 48q25 2 35 -19.5t8 -58.5t-11.5 -82t-27.5 -98q102 14 225 96q39 33 61.5 6.5t38 -58.5t16.5 -75t-28 -75q-176 -199 -231 -355q-29 -84 -13.5 -139t64.5 -59q59 -2 130 79.5 t122 202.5q6 14 15.5 14.5t15.5 -14.5q22 -51 -11 -133q-39 -92 -119.5 -150.5t-162.5 -56.5q-117 2 -163 92.5t-7 217.5q47 150 256 389q-123 -78 -246 -78q-233 -594 -502 -617q-90 -8 -135 46.5t-37 144.5q-147 -199 -286 -189q-70 4 -102 51.5t-29.5 110z" />
<glyph unicode="&#xc4;" horiz-adv-x="1417" d="M-208 -530.5q3 36.5 18 79.5q82 246 440 388q51 121 63 149q-117 -121 -223 -113q-104 6 -125.5 101.5t21.5 193.5q92 260 278 518q25 35 51 2q70 -94 -39 -274q-115 -195 -157 -299q-31 -76 -28 -125t38 -51q100 -8 287 303q37 61 123 222t125 218q29 39 51 15 q25 -31 25.5 -88.5t-33.5 -137.5q-203 -407 -269 -557q334 176 494 588q-53 23 -54 80t31.5 113.5t77.5 101.5t76 45q25 0 35 -20.5t6 -57.5t-15.5 -82t-29.5 -98q104 18 219 96q25 16 35 18.5t26 -12.5q23 -27 40.5 -59.5t17.5 -75.5t-27 -73q-186 -207 -235 -355 q-27 -84 -11.5 -140t62.5 -58q59 -2 129.5 78.5t124.5 203.5q6 12 16 13.5t17 -13.5q20 -57 -11 -133q-39 -92 -119.5 -150.5t-166.5 -56.5q-115 2 -161 92.5t-9 216.5q41 143 249 383q-109 -68 -235 -71q-109 -244 -246 -402.5t-375 -259.5q-115 -274 -216 -450t-214 -221 q-72 -35 -119 40q-20 31 -30 51.5t-20.5 53.5t-7.5 69.5zM-109 -633q14 -18 65.5 39t124.5 180.5t134 266.5q-123 -70 -207 -180.5t-110.5 -194.5t-6.5 -111z" />
<glyph unicode="&#xc5;" horiz-adv-x="876" d="M-162 -154q102 317 328.5 765t417.5 616q49 43 86 10q84 -82 45 -223q-49 -182 -205 -387t-313 -310q37 -84 125 -84q80 -2 159.5 67t130.5 175q84 180 166 297q27 39 49 12q25 -31 26 -88t-32 -137q-12 -25 -125.5 -253t-165.5 -347q229 123 390 354q22 31 32 -2 q14 -43 -30 -121q-102 -178 -428 -315q-51 -123 -94.5 -215t-100.5 -194.5t-116.5 -168t-116.5 -88.5q-72 -27 -117 39q-27 37 -40 66t-21.5 82t14.5 104q43 135 162.5 235.5t283.5 155.5q68 166 137 322q-74 -47 -166 -43q-102 4 -157 96q-158 -324 -277 -637 q-14 -35 -35 -8q-59 80 -12 225zM-10 -680q14 -18 66.5 40t124 180t130.5 265q-123 -70 -207 -180t-109.5 -194t-4.5 -111zM236 416q133 109 239.5 264.5t146.5 262t23 116.5q-10 6 -59 -56.5t-120.5 -176t-137.5 -238.5q-12 -23 -44 -80t-48 -92zM836.5 924q3.5 41 31.5 67 q25 25 62 10.5t53 -55.5q35 -88 -10 -137q-20 -25 -55 -15.5t-60 46.5q-25 43 -21.5 84z" />
<glyph unicode="&#xc6;" horiz-adv-x="1335" d="M-184 -307q39 303 276.5 760.5t478.5 816.5q29 41 50 -2q45 -104 -66 -307q-29 -51 -152.5 -256t-187.5 -326q109 -35 107 -238q0 -43 -7 -86q72 35 144.5 112t118.5 165q166 313 268 461q14 20 28.5 18t22.5 -23q16 -41 14 -88q184 158 295 41q127 -133 -22 -450 q-96 -205 -215 -281q135 6 231 90t156 207q10 18 23.5 17.5t17.5 -17.5q12 -51 -31 -133q-111 -203 -360 -217q-188 -12 -285 74q-57 57 -70 135q-168 -309 -317 -651q-14 -35 -35 -9q-51 72 -4 226q24 80 135 311q-63 -39 -123 -53q-25 -156 -86 -308.5t-135 -244.5 q-53 -66 -94 -74t-88 33q-115 92 -88 297zM-70 -524q33 -39 115 108q99 173 152 396q-90 10 -127 81q-92 -219 -133 -380.5t-7 -204.5zM150 154q0 -105 59 -119q16 102 18 147q2 37 -3 71t-14 51.5t-17 12.5q-14 -8 -28.5 -66t-14.5 -97zM762 76q49 -39 133 48t158 241 q59 123 74.5 230t-25.5 126q-37 18 -116 -50.5t-150 -185.5q-2 -4 -30 -48.5t-42 -71.5q-84 -225 -2 -289z" />
<glyph unicode="&#xc7;" horiz-adv-x="1107" d="M11.5 287q11.5 119 84.5 245q66 113 151 188t173 79q49 4 79.5 -10.5t61.5 -57.5q12 -16 36 -40.5t36 -41t21.5 -53.5t4.5 -90q0 -4 -6 -35q156 0 355 295q31 43 51 16q25 -29 25.5 -87t-31.5 -138q-2 -2 -120 -239.5t-171 -360.5q233 125 389 354q8 12 18.5 11t14.5 -15 q12 -45 -31 -119q-106 -184 -428 -313q-72 -170 -128 -287.5t-140 -234.5t-160 -146q-74 -27 -117 37q-27 41 -39 69t-21 82t13 105q43 135 162 234.5t285 156.5q139 338 268 590q-92 -68 -205 -61q-33 -141 -123 -270.5t-198 -163.5q-160 -51 -261 86q-61 96 -49.5 215z M134 219q-19 -121 20 -151q45 -39 128 18t154 190q51 99 76 179q-57 29 -95 82t-40 112q-88 -76 -158 -194q-66 -115 -85 -236zM221 -680q16 -20 67.5 38t123.5 180t131 265q-123 -70 -207 -179t-109.5 -193t-5.5 -111zM477 643q-14 -80 49 -137q20 78 13 143 q-4 31 -17.5 41t-27 -3t-17.5 -44zM1069 921q4 42 31 68q25 25 62 10.5t55 -57.5q33 -76 -13 -135q-20 -25 -55 -15.5t-59 46.5q-25 41 -21 83z" />
<glyph unicode="&#xc8;" horiz-adv-x="1890" d="M13.5 287q11.5 119 84.5 245q61 109 149.5 185t176.5 82q47 2 75.5 -12.5t61.5 -57.5q12 -14 37 -39.5t37 -41t20.5 -53.5t3.5 -91q0 -23 -4 -33q170 2 369 320q8 16 22.5 16t22.5 -16q47 -78 -4 -213q76 84 170 153.5t145.5 67.5t75 -66.5t4.5 -134.5q78 76 165 132 t134 54q53 -2 67.5 -74.5t-18.5 -146.5q-20 -49 -91.5 -165.5t-94.5 -161.5q-43 -88 -27.5 -150.5t72.5 -58.5q102 6 252 282q15 27 35 0q8 -8 5 -51t-20 -78q-45 -88 -133 -153.5t-172 -63.5q-129 2 -175 92t9 215q31 72 95.5 175.5t103.5 166t27 68.5q-10 4 -35 -6 t-75 -48t-109 -98q-190 -190 -355 -553q-18 -41 -47 -12q-72 72 -2 256q27 70 98.5 187.5t117.5 195.5t30 84q-12 4 -45 -13.5t-90.5 -64.5t-118.5 -112q-152 -166 -299 -510q-14 -27 -39 -6q-70 55 -20 206q25 82 131 287q-88 -59 -191 -51q-33 -141 -123 -272.5 t-198 -165.5q-156 -51 -261 88q-61 96 -49.5 215zM135 219q-18 -121 23 -153q43 -39 126 19t154 191q51 95 74 177q-55 31 -93 83t-40 111q-88 -76 -158 -194q-68 -113 -86 -234zM479 641q-12 -86 49 -137q20 96 13 143q-4 31 -17.5 41t-27 -3t-17.5 -44z" />
<glyph unicode="&#xc9;" horiz-adv-x="1003" d="M115 13q-8 36 8 75q16 41 50 62.5t65 9.5q29 -12 38 -47t-8 -76q-16 -39 -51 -61.5t-63 -10.5q-31 12 -39 48zM385 10q-8 37 8 76q18 43 53 63.5t66 10.5t39 -46t-8 -79q-14 -39 -51 -60.5t-68 -11.5t-39 47zM667 10q-7 37 9 76q14 39 48 60.5t64 11.5q29 -8 37.5 -44 t-8.5 -77q-16 -39 -49 -59.5t-63.5 -12.5t-37.5 45z" />
<glyph unicode="&#xca;" horiz-adv-x="450" />
<glyph unicode="&#xcb;" horiz-adv-x="905" d="M36 411.5q5 6.5 27 4.5q55 -8 93 -10q135 236 322.5 486.5t338.5 375.5q45 37 74 -2q31 -43 47 -84q29 -66 0 -150q-98 -297 -150 -596q78 -27 93 -104q6 -29 -23 -19q-37 10 -88 13q-25 -190 -31 -328q0 -33 -30 -18q-74 33 -76 186q0 74 8 156q-41 -2 -196.5 -18.5 t-211.5 -14.5q-94 -162 -155 -295q-6 -14 -17.5 -14t-19.5 10q-45 61 10 209q23 57 55 116q-49 27 -67 70q-8 20 -3 26.5zM311 412q47 4 170 18t176 16q57 391 152 631q-254 -284 -498 -665zM745 1521.5q3 8.5 17 10.5q82 10 141 -41q57 -51 144 -164q18 -25 -11 -29 q-55 -4 -102 31q-37 27 -182 172q-10 12 -7 20.5z" />
<glyph unicode="&#xcc;" horiz-adv-x="905" d="M36 411.5q5 6.5 27 4.5q55 -8 93 -10q135 236 322.5 486.5t338.5 375.5q45 37 74 -2q31 -43 47 -84q29 -66 0 -150q-98 -297 -150 -596q78 -27 93 -104q6 -29 -23 -19q-37 10 -88 13q-25 -190 -31 -328q0 -33 -30 -18q-74 33 -76 186q0 74 8 156q-41 -2 -196.5 -18.5 t-211.5 -14.5q-94 -162 -155 -295q-6 -14 -17.5 -14t-19.5 10q-45 61 10 209q23 57 55 116q-49 27 -67 70q-8 20 -3 26.5zM311 412q47 4 170 18t176 16q57 391 152 631q-254 -284 -498 -665zM707 1396q-4 5 0 17q12 29 46.5 51.5t80.5 22.5q35 0 132 -36t164 -15 q16 4 22.5 -2.5t-1.5 -22.5q-37 -66 -113 -72q-51 -4 -156.5 35t-158.5 21q-12 -4 -16 1z" />
<glyph unicode="&#xcd;" horiz-adv-x="1099" d="M82 367q0 156 62.5 311.5t157.5 271t199.5 198.5t194.5 116q181 61 279 -41q121 -53 156.5 -192.5t1 -298.5t-114.5 -306q-137 -252 -321.5 -383t-381.5 -59q-233 86 -233 383zM229.5 200.5q20.5 -110.5 89.5 -139.5q104 -45 264 74t285 348q88 162 124 318.5t17.5 254 t-75.5 118.5q-84 31 -251 -81t-302 -321q-94 -147 -133 -304t-18.5 -267.5zM767 1380.5q-5 6.5 3 18.5q16 29 53 48t80 13q35 -4 129 -49t164 -33q16 4 21.5 -5t-5.5 -23q-47 -61 -116 -60q-55 2 -154.5 51.5t-155.5 36.5q-14 -4 -19 2.5z" />
<glyph unicode="&#xce;" horiz-adv-x="1527" d="M82 367q0 154 63.5 308t157.5 270t198.5 199t192.5 113q88 29 161 16t118 -61q137 -61 164 -237q8 14 100 162q35 57 76 69q182 51 329 56q145 2 181 -107q10 -29 -21 -29q-174 6 -432 -67q-104 -156 -270 -457q66 12 143 16q137 8 170 -98q8 -31 -22 -31 q-166 -6 -383 -59q-90 -180 -148 -309q197 53 307 55q141 10 183 -96q12 -31 -25 -31q-133 2 -442 -78q-76 -20 -102.5 19t-49.5 82v2q-209 -162 -414 -86q-236 86 -235 379zM231.5 202.5q20.5 -108.5 87.5 -139.5q102 -45 261 72t284 346q88 162 123 316.5t17.5 252 t-74.5 119.5q-84 31 -249 -79.5t-300 -321.5q-94 -145 -132 -301t-17.5 -264.5z" />
<glyph unicode="&#xcf;" horiz-adv-x="1105" d="M11.5 284.5q11.5 116.5 84.5 245.5q63 111 151.5 186t176.5 81q82 6 137 -70q10 -12 37 -41t39 -49q84 102 178 142t154 7q76 -43 121 -104q29 -35 12 -112.5t-74 -157.5q-70 -100 -179.5 -120t-209.5 56q-47 -141 -16.5 -231t112.5 -94q115 -4 219.5 81.5t186.5 208.5 q8 10 19 10.5t16 -14.5q16 -47 -35 -123q-63 -96 -173 -157.5t-225 -63.5q-92 -2 -156.5 38t-92.5 112q-76 -90 -172 -127q-156 -57 -259 82q-63 98 -51.5 214.5zM134 216q-19 -120 22 -153q43 -37 126 21.5t154 189.5q35 62 72 162q-125 100 -123 215q-94 -78 -166 -200 q-66 -115 -85 -235zM479 643q-8 -76 45 -154q23 84 15 156q-4 33 -17.5 43t-27 -3t-15.5 -42zM657 395q127 -72 250 103q119 172 80 207q-23 20 -79 -10.5t-124.5 -105.5t-111.5 -163q-2 -6 -7.5 -16.5t-7.5 -14.5z" />
<glyph unicode="&#xd0;" horiz-adv-x="847" d="M92 520q-4 14 0 22.5t23 6.5q80 -6 276.5 7t263.5 13q131 -2 150 -110q4 -16 -2 -23.5t-23 -5.5q-76 10 -288.5 -6t-251.5 -16q-129 2 -148 112z" />
<glyph unicode="&#xd1;" horiz-adv-x="966" d="M92 522q-4 14 0 22.5t23 6.5q84 -6 323.5 9t333.5 13q133 -6 152 -112q4 -16 -2.5 -23.5t-24.5 -5.5q-94 12 -351 -6t-308 -16q-127 2 -146 112z" />
<glyph unicode="&#xd2;" horiz-adv-x="638" d="M336 1253q20 37 51 -8q41 -59 102.5 -202.5t88.5 -233.5q6 -25 -9 -33q-24 -12 -51 33q-121 190 -172 313q-37 82 -10 131zM518 1167q-25 82 8 129q8 14 23.5 12.5t25.5 -24.5q70 -150 117 -434q0 -31 -18 -31q-25 0 -43 41q-49 106 -113 307z" />
<glyph unicode="&#xd3;" horiz-adv-x="636" d="M289 899q33 84 106.5 209t124.5 182q31 35 49 -2q23 -53 -26 -129q-121 -186 -191 -264q-31 -35 -53 -29q-20 6 -10 33zM389 797q-16 12 0 41q47 74 146.5 195.5t156.5 170.5q18 14 34.5 10t18.5 -20q4 -53 -49 -125q-78 -103 -254 -250q-39 -33 -53 -22z" />
<glyph unicode="&#xd4;" horiz-adv-x="526" d="M332 1245q6 16 20.5 17.5t32.5 -21.5q41 -59 102.5 -194.5t87.5 -221.5q8 -31 -12 -34q-22 -9 -49 32q-80 119 -166 297q-37 78 -16 125z" />
<glyph unicode="&#xd5;" horiz-adv-x="471" d="M289 909q43 90 115.5 215t119.5 179q37 39 51 -3q18 -49 -26 -122q-97 -156 -199 -277q-27 -33 -53 -29q-23 4 -8 37z" />
<glyph unicode="&#xd6;" horiz-adv-x="1533" d="M14 288q11 118 84 244q63 111 150.5 185t175.5 82q82 8 137 -68q12 -16 37 -41.5t37 -41t20.5 -53.5t3.5 -89q0 -25 -2 -37q164 2 373 319q23 35 43 5q45 -76 8 -193q80 84 165 144.5t132 54.5q55 -6 85 -71.5t-5 -145.5q-20 -41 -92 -165t-98 -181q-41 -88 -32 -148.5 t67 -58.5q106 2 258 282q6 12 18 12.5t16 -12.5q19 -47 -20 -129q-43 -90 -128 -153.5t-173 -63.5q-123 0 -163 85t9 216q29 84 91.5 192.5t99.5 171t22.5 66.5t-51.5 -12t-97.5 -63.5t-121.5 -112.5q-139 -152 -299 -518q-14 -33 -39 -6q-63 70 -16 209q47 135 129 278 q-86 -57 -191 -51q-33 -139 -124 -269.5t-199 -164.5q-156 -51 -258 86q-63 98 -52 216zM134 219q-19 -121 24 -153q45 -37 128 21t152 189q51 95 76 175q-55 31 -93 86t-40 112q-86 -72 -160 -194q-68 -115 -87 -236zM479 643q-12 -88 49 -137q20 94 13 143q-4 31 -17.5 41 t-27 -4t-17.5 -43z" />
<glyph unicode="&#xd7;" horiz-adv-x="1175" d="M11.5 287q11.5 119 84.5 245q63 111 149.5 185t174.5 82q84 8 139 -68q10 -14 36 -40.5t36 -42t19 -53.5t5 -89q-4 -49 -10 -78q37 -4 57 -4q43 0 64 2q70 221 203 438t278 369q47 51 88 10q82 -82 45 -223q-49 -180 -192 -358q-146 -183 -277 -242 q-43 -106 -61.5 -191.5t-8 -140.5t55.5 -57q70 -4 164 85t153 210q6 12 14.5 17t16.5 1t12 -18q14 -43 -20 -125q-27 -63 -129 -146.5t-209 -79.5q-109 4 -156 83t-12 237q10 43 21 80q-16 -2 -47 -2q-37 0 -72 6q-41 -133 -127 -248t-184 -145q-162 -51 -261 86 q-61 96 -49.5 215zM132.5 219q-19.5 -121 21.5 -153q43 -37 127 20t155 190q35 66 70 158q-131 88 -131 211q-98 -80 -160 -190q-63 -115 -82.5 -236zM477 643q-12 -84 45 -147q25 98 17 153q-4 31 -17.5 40t-27 -4t-17.5 -42zM948 506q106 74 215 227q70 100 118 208 t28 122q-10 6 -59.5 -55.5t-120 -175t-138.5 -238.5q-18 -33 -43 -88z" />
<glyph unicode="&#xd8;" horiz-adv-x="768" d="M-208 -529.5q3 37.5 18 80.5q82 248 438 388q4 12 27.5 65t35.5 82q-117 -121 -223 -113q-102 8 -124.5 102.5t20.5 194.5q86 252 278 518q27 37 51 0q72 -96 -39 -272q-106 -170 -157 -299q-31 -76 -28 -125t38 -51q104 -8 287 303q29 49 118 215t130 225q27 37 51 15 q25 -33 26.5 -89.5t-34.5 -140.5q-176 -338 -273 -563q219 119 363 316q8 12 19 11t13 -16q11 -46 -36 -118q-96 -154 -394 -275q-53 -129 -93 -216t-98.5 -192.5t-117.5 -172t-121 -88.5q-70 -27 -117 43q-18 29 -29 50t-21.5 53t-7.5 69.5zM-109 -633q14 -20 65.5 38 t124.5 182.5t132 265.5q-123 -70 -207 -180.5t-109.5 -193.5t-5.5 -112zM342 909q-6 29 8 62q16 33 43 51t49 8q25 -10 32 -38.5t-7 -61.5q-16 -33 -43 -50.5t-51 -9.5q-25 10 -31 39zM575.5 911.5q-8.5 30.5 6 63.5t42 50t54.5 9q25 -8 32 -37.5t-8 -64.5 q-12 -31 -40.5 -49.5t-53 -10t-33 39z" />
<glyph unicode="&#xd9;" horiz-adv-x="776" d="M102 178q27 96 127 297q8 502 60 758q8 45 43 22q82 -51 71 -237q-2 -53 -14 -186.5t-16 -215.5q311 344 641 637q33 27 43 -10q31 -115 -125 -268q-25 -25 -143.5 -137.5t-219 -212t-213.5 -222.5q-123 -219 -194 -423q-12 -31 -39 -7q-66 57 -21 205zM499.5 1318.5 q-5.5 28.5 8.5 61.5q16 33 43 51.5t49 8.5q25 -10 32 -39t-7 -62q-16 -33 -43 -50t-52 -9q-25 10 -30.5 38.5zM733 1321q-8 31 6.5 63.5t42 50t54.5 9.5q25 -8 31.5 -38t-7.5 -65q-12 -31 -40.5 -49t-53.5 -10t-33 39z" />
<glyph unicode="&#xda;" horiz-adv-x="1153" d="M11.5 288q11.5 118 84.5 244q66 111 152 185t174 82q49 4 79.5 -10.5t61.5 -57.5q8 -10 44 -48t46.5 -74t5.5 -103q0 -14 -4 -35q160 0 355 293q27 41 51 12q27 -27 29 -85t-31 -138q-18 -41 -84 -160t-88 -172q-27 -59 -33 -104t7 -69.5t46 -22.5q66 2 142.5 86 t124.5 196q6 14 16 14t18 -14q20 -55 -16 -129q-47 -92 -134 -153.5t-173 -59.5q-113 2 -148 89t13 212q33 92 86 205q-78 -57 -191 -51q-33 -141 -124 -270.5t-199 -163.5q-156 -51 -259 86q-63 98 -51.5 216zM135.5 219q-20.5 -121 20.5 -153q43 -37 127 20t153 190 q47 89 78 175q-57 31 -95 85t-40 113q-98 -84 -160 -194q-63 -115 -83.5 -236zM477 643q-14 -80 49 -137q20 72 13 143q-2 31 -15.5 41t-28 -4t-18.5 -43zM1092 834q-49 88 8 149q25 27 62.5 11.5t56.5 -58.5q33 -74 -15 -133q-18 -25 -53.5 -16.5t-58.5 47.5z" />
<glyph unicode="&#xdb;" horiz-adv-x="833" d="M2 504.5q6 11.5 29 9.5q51 0 137 8q6 39 22 90q-127 -16 -180 56q-31 39 25 39q57 -2 207 12q102 170 243.5 247.5t223.5 26.5q78 -49 112 -119q8 -33 10.5 -54t-11 -56t-27 -58.5t-33 -60.5t-29.5 -61q-8 -20 -16 -24.5t-29 5.5q-80 51 -35 170q6 16 18.5 41t21.5 43.5 t16.5 39t6.5 34.5t-12 20q-31 23 -114.5 -32.5t-157.5 -149.5q82 -4 119 -57q12 -16 6 -27.5t-31 -9.5q-63 2 -162 -8q-2 -6 -7 -16.5t-7 -14.5q-8 -18 -20 -51q84 4 127 -58q12 -16 6 -28t-27 -10q-51 2 -131 -9q-12 -127 72 -157q59 -23 138 21t128 128q16 25 31 4 q39 -53 -27 -137q-51 -66 -137 -87t-170 9q-141 53 -168 199q-109 -10 -160 53q-14 18 -8 29.5z" />
<glyph unicode="&#xdc;" horiz-adv-x="1415" d="M12.5 288q12.5 118 83.5 244q63 111 151.5 185t176.5 82q84 8 137 -68q6 -10 44 -48t48.5 -74t5.5 -103q0 -6 -1 -16.5t-1 -14.5q109 16 222 156q129 160 262 168q84 6 137 -68q12 -14 36.5 -40.5t36 -42t20.5 -53.5t5 -89q-6 -45 -6 -47q27 0 39 2q8 2 12 -1t3 -8.5 t-7 -11.5q-18 -20 -57 -24q-35 -141 -124 -268.5t-196 -161.5q-156 -51 -258 86q-106 141 -12 372q-55 -27 -127 -26q-35 -141 -124 -269.5t-197 -162.5q-152 -51 -256 86q-66 98 -53.5 216zM134 220q-19 -120 24 -154q45 -35 126 22t152 188q55 102 74 170q-53 29 -93 83.5 t-40 115.5q-86 -68 -158 -190q-66 -115 -85 -235zM477 641q-14 -94 49 -141q21 83 13 149q-4 31 -17.5 40t-27 -5t-17.5 -43zM853 219q-17 -123 21 -153q43 -37 125 20t154 190q47 86 74 168q-20 6 -37 23q-39 27 -67.5 77t-28.5 101q-86 -68 -158 -190q-66 -113 -83 -236z M1196 643q-16 -86 47 -145q20 86 12 151q-4 31 -16 40t-25.5 -4t-17.5 -42z" />
<glyph unicode="&#xdd;" horiz-adv-x="1566" d="M11.5 290q11.5 116 82.5 247q61 111 149.5 184.5t178.5 79.5q82 6 139 -70q10 -12 36 -38.5t36 -42t19.5 -53.5t4.5 -91q0 -8 -4 -41q84 2 164 61.5t135 149.5q12 20 78 112q25 33 51 3q68 -100 -39 -275q-115 -188 -159 -299q-31 -76 -28 -124t38 -52q109 -8 303 311 q63 102 140 246.5t110 189.5q27 39 51 13q27 -31 29 -89.5t-31 -138.5q-18 -39 -92 -163.5t-100.5 -184t-32.5 -105.5t9 -70.5t52 -22.5q59 2 132 82.5t136 199.5q8 14 18.5 15.5t18.5 -13.5q25 -45 -18 -127q-47 -92 -132 -155.5t-173 -63.5q-96 0 -138 54.5t-30 146.5 q-156 -205 -293 -193q-70 6 -101.5 53.5t-29.5 109t27 134.5q27 82 77 176q-98 -45 -184 -36q-39 -139 -127 -264.5t-190 -159.5q-51 -25 -128 -4.5t-133 94.5q-63 98 -51.5 214zM134.5 221q-19.5 -119 21.5 -153q43 -37 126 21t156 192q35 61 72 165q-55 31 -94 87.5 t-39 115.5q-96 -82 -160 -194q-63 -115 -82.5 -234zM477 645q-10 -88 47 -139q23 79 15 145q-6 47 -32 43t-30 -49z" />
<glyph unicode="&#xde;" horiz-adv-x="1329" d="M63 76q-129 170 31 461q61 111 149.5 184.5t178.5 79.5q82 6 137 -70q10 -14 34.5 -38.5t37 -41t22 -54.5t4.5 -91q0 -2 -1 -10.5t-1 -14.5q145 37 217 310q12 43 43 16q51 -43 61.5 -102.5t-11.5 -151.5q-8 -33 -27.5 -107.5t-30 -115.5t-24 -114t-23.5 -150 q106 174 275.5 398t277.5 335q31 31 37 -8q8 -60 -84 -177q-20 -27 -115.5 -139.5t-187.5 -234t-178 -258.5q-20 -31 -43 -21q-59 31 -81 70t-20 116q6 104 54 345q-53 -59 -154 -70q-33 -141 -123 -271.5t-199 -162.5q-154 -49 -256 88zM132 221q-19 -119 22 -151 q45 -37 126.5 20t153.5 191q47 86 74 168q-55 29 -94 85t-39 115q-86 -70 -158 -194q-66 -115 -85 -234zM475 645q-12 -84 49 -139q20 82 13 147q-4 31 -17.5 40t-27 -5t-17.5 -43z" />
<glyph unicode="&#xdf;" horiz-adv-x="1767" d="M63 76q-129 170 31 461q61 111 149.5 184.5t178.5 79.5q47 4 77.5 -11.5t61.5 -58.5q4 -6 42 -45t48.5 -75t5.5 -105q0 -12 -4 -41q86 2 165 61.5t136 151.5q23 37 74 110q25 37 51 3q70 -98 -37 -275q-111 -180 -163 -309q-20 -49 -26.5 -88t1.5 -59.5t31 -20.5 q74 2 241 274q16 25 25 39q68 106 145.5 249.5t108.5 186.5q29 41 51 13q27 -31 29 -89.5t-33 -138.5q-20 -39 -93 -168t-102 -186q-41 -86 -38.5 -137t45.5 -51q55 0 139 92t166 237q12 106 42.5 196.5t64.5 142t61.5 79t46.5 31.5q23 4 31 -14.5t2 -57.5 q-29 -145 -177 -385q-238 -385 -417 -383q-63 2 -99.5 51.5t-29.5 114.5q-137 -166 -250 -155q-90 8 -114.5 93t18.5 197q23 70 75 179q-84 -43 -184 -39q-37 -139 -125 -264.5t-195 -157.5q-154 -47 -256 88zM133.5 221q-20.5 -119 20.5 -151q45 -37 128 20t152 191 q47 88 76 168q-55 29 -94 85t-39 115q-92 -72 -160 -194q-63 -115 -83.5 -234zM475 645q-12 -84 49 -139q20 74 13 147q-2 31 -16.5 40t-28 -5t-17.5 -43z" />
<glyph unicode="&#xe0;" horiz-adv-x="909" d="M36 78.5q-48 105.5 15 281.5q63 155 217 431q-90 8 -133 63q-31 39 27 39q104 0 164 2q106 186 153 246q31 47 49 0q37 -96 -30 -238q61 2 166.5 8.5t132.5 8.5q109 190 147 239q31 41 49 -2q39 -88 -26 -233q90 -6 127 -66q10 -18 3 -28.5t-30 -8.5q-53 4 -154 0 q-25 -45 -85 -149.5t-110 -197.5t-85 -169q-49 -115 -36 -195.5t77 -84.5q66 -2 143.5 84t140.5 210q6 12 14.5 17.5t16.5 1.5t12 -19q12 -41 -20 -116q-31 -70 -125 -154t-203 -80q-66 4 -115 48t-63 120q-49 -70 -121.5 -120t-156.5 -48q-113 4 -161 109.5zM138.5 110.5 q13.5 -81.5 78.5 -85.5q63 -2 143 90t134 215q71 170 243 483q-29 -2 -137 -9t-160 -9q-203 -346 -266 -490q-49 -113 -35.5 -194.5z" />
<glyph unicode="&#xe1;" horiz-adv-x="309" d="M99 497.5q-9 39.5 14 84.5q20 39 62 58t69 7q29 -12 38 -53t-16 -90q-25 -45 -61.5 -60.5t-65.5 0.5q-31 14 -40 53.5z" />
<glyph unicode="&#xe2;" horiz-adv-x="438" d="M-57 -166q43 90 115.5 215t119.5 178q37 39 51 -2q18 -49 -26 -123q-97 -155 -199 -276q-27 -33 -53 -29q-20 4 -8 37z" />
<glyph unicode="&#xe3;" horiz-adv-x="606" d="M-55 -135q33 84 106.5 209t124.5 182q31 35 49 -2q23 -53 -26 -129q-121 -186 -191 -264q-31 -35 -53 -29q-20 6 -10 33zM45 -197q47 74 146.5 196t156.5 171q18 14 34.5 10t18.5 -20q4 -53 -49 -125q-78 -103 -254 -250q-39 -33 -53 -23q-16 12 0 41z" />
<glyph unicode="&#xe4;" horiz-adv-x="1517" d="M11 208q-7 79 15.5 160t69.5 164q61 111 150.5 186t177.5 81q82 6 137 -70q6 -8 44 -46t48.5 -74t5.5 -105q0 -2 -6 -33q168 2 371 317q14 20 27.5 18.5t21.5 -22.5q18 -45 17 -92q49 45 98 70.5t104.5 23.5t96.5 -47q121 -135 -27 -450q-98 -209 -211 -279 q135 6 231.5 90t153.5 203q10 20 23.5 18t17.5 -18q16 -47 -31 -133q-109 -199 -360 -217q-188 -12 -287 78q-59 55 -65 133q-178 -326 -322 -653q-16 -37 -33 -7q-53 70 -4 226q61 199 363 745q-84 -63 -193 -53q-35 -143 -125 -273.5t-198 -164.5q-150 -49 -259 88 q-45 57 -52 136zM134 217q-19 -121 20 -151q45 -39 128 19t154 191q49 91 76 177q-57 31 -95 84t-40 110q-90 -80 -158 -194q-66 -115 -85 -236zM477 641q-14 -80 49 -137q18 80 13 143q-4 31 -17.5 41t-27 -3t-17.5 -44zM940 72q49 -41 135 47.5t160 240.5 q59 123 73.5 232.5t-24.5 124.5q-39 16 -118 -51.5t-148 -182.5q-4 -8 -76 -123q-84 -221 -2 -288z" />
<glyph unicode="&#xe5;" horiz-adv-x="905" d="M36 411.5q5 6.5 27 4.5q55 -8 93 -10q135 236 322.5 486.5t338.5 375.5q45 37 74 -2q31 -43 47 -84q29 -66 0 -150q-98 -297 -150 -596q78 -27 93 -104q6 -29 -23 -19q-37 10 -88 13q-25 -190 -31 -328q0 -33 -30 -18q-74 33 -76 186q0 74 8 156q-41 -2 -196.5 -18.5 t-211.5 -14.5q-94 -162 -155 -295q-6 -14 -17.5 -14t-19.5 10q-45 61 10 209q23 57 55 116q-49 27 -67 70q-8 20 -3 26.5zM311 412q47 4 170 18t176 16q57 391 152 631q-254 -284 -498 -665zM660.5 1323q-3.5 6 0 13t9.5 12q10 8 104 75.5t133 89.5q14 8 27 9q23 2 41 -31 q76 -129 84 -143q14 -20 -12 -29q-59 -12 -109 39q-21 20 -64 90l44 -29q-47 -33 -140 -84q-66 -35 -106 -18q-8 0 -11.5 6z" />
<glyph unicode="&#xe6;" horiz-adv-x="753" d="M-27 59q-25 45 2 117q68 182 203 437t268 462q-63 25 -86 105q-4 14 2.5 20t20.5 4q96 -6 283.5 22.5t226.5 28.5q119 2 156 -100q6 -12 -0.5 -20.5t-22.5 -6.5q-51 0 -111.5 -6t-102.5 -13t-106.5 -19.5t-95.5 -16.5q-94 -141 -282 -483q63 12 145 16q137 6 168 -92 q10 -31 -20 -31q-150 0 -379 -57q-96 -184 -158 -324q182 57 317 64q139 6 174 -90q10 -31 -20 -31q-137 2 -453 -82q-57 -14 -86 21q-6 6 -43 75zM518 1313q8 6 100.5 81.5t131.5 102.5q16 10 24 10q29 2 45 -26q51 -88 92 -135q8 -10 3 -18.5t-15 -12.5q-55 -16 -111 31 q-14 12 -43 45q-61 -49 -120 -84q-66 -37 -105 -25q-29 10 -2 31z" />
<glyph unicode="&#xe7;" horiz-adv-x="905" d="M36 411.5q5 6.5 27 4.5q55 -8 93 -10q135 236 322.5 486.5t338.5 375.5q45 37 74 -2q31 -43 47 -84q29 -66 0 -150q-98 -297 -150 -596q78 -27 93 -104q6 -29 -23 -19q-37 10 -88 13q-25 -190 -31 -328q0 -33 -30 -18q-74 33 -76 186q0 74 8 156q-41 -2 -196.5 -18.5 t-211.5 -14.5q-94 -162 -155 -295q-6 -14 -17.5 -14t-19.5 10q-45 61 10 209q23 57 55 116q-49 27 -67 70q-8 20 -3 26.5zM311 412q47 4 170 18t176 16q57 391 152 631q-254 -284 -498 -665zM811 1354q-29 12 0 30q158 102 195 119q81 35 149 -6q29 -18 0 -33 q-27 -12 -79 -38.5t-93 -45t-63 -26.5q-72 -23 -109 0z" />
<glyph unicode="&#xe8;" horiz-adv-x="753" d="M-27 59q-25 45 2 117q68 182 203 437t268 462q-63 25 -86 105q-4 14 2.5 20t20.5 4q96 -6 283.5 22.5t226.5 28.5q119 2 156 -100q6 -12 -0.5 -20.5t-22.5 -6.5q-51 0 -111.5 -6t-102.5 -13t-106.5 -19.5t-95.5 -16.5q-94 -141 -282 -483q63 12 145 16q137 6 168 -92 q10 -31 -20 -31q-150 0 -379 -57q-96 -184 -158 -324q182 57 317 64q139 6 174 -90q10 -31 -20 -31q-137 2 -453 -82q-57 -14 -86 21q-6 6 -43 75zM550 1337q-7 29 7 62q14 31 42 48t50 9q25 -8 32 -36.5t-5 -61.5q-12 -31 -40 -48.5t-52 -9.5q-27 8 -34 37zM778 1357.5 q-8 28.5 6 59.5q16 33 43 50.5t50 9.5q27 -8 34 -38t-8 -63q-14 -31 -40.5 -47t-51.5 -8t-33 36.5z" />
<glyph unicode="&#xe9;" horiz-adv-x="753" d="M-27 59q-25 45 2 117q68 182 203 437t268 462q-63 25 -86 105q-4 14 2.5 20t20.5 4q96 -6 283.5 22.5t226.5 28.5q119 2 156 -100q6 -12 -0.5 -20.5t-22.5 -6.5q-51 0 -111.5 -6t-102.5 -13t-106.5 -19.5t-95.5 -16.5q-94 -141 -282 -483q63 12 145 16q137 6 168 -92 q10 -31 -20 -31q-150 0 -379 -57q-96 -184 -158 -324q182 57 317 64q139 6 174 -90q10 -31 -20 -31q-137 2 -453 -82q-57 -14 -86 21q-6 6 -43 75zM518 1427.5q0 10.5 10 16.5q70 43 146 14q80 -29 194 -102q27 -16 0 -31q-43 -20 -106 -6q-23 6 -61.5 21.5t-91 38 t-79.5 32.5q-12 6 -12 16.5z" />
<glyph unicode="&#xea;" horiz-adv-x="372" d="M-4 215q72 201 248 530t307 517q29 41 49 -2q53 -111 -61 -314q-354 -623 -502 -954q-12 -29 -33 -4q-66 70 -8 227zM606 1333q-27 12 2 35q115 88 191 125q67 33 147 -2q12 -4 13.5 -15.5t-13.5 -19.5q-25 -12 -77 -41t-92 -48t-64 -28q-70 -23 -107 -6z" />
<glyph unicode="&#xeb;" horiz-adv-x="372" d="M-4 215q72 201 248 530t307 517q29 41 49 -2q53 -111 -61 -314q-354 -623 -502 -954q-12 -29 -33 -4q-66 70 -8 227zM410 1307q-27 12 0 30q23 14 111.5 79t125.5 87q12 8 27 8q23 2 41 -30q51 -96 84 -144q14 -20 -13 -28q-59 -12 -110 39q-19 18 -39 49 q-25 -18 -123 -74q-61 -33 -104 -16z" />
<glyph unicode="&#xec;" horiz-adv-x="372" d="M-4 215q72 201 248 530t307 517q29 41 49 -2q53 -111 -61 -314q-354 -623 -502 -954q-12 -29 -33 -4q-66 70 -8 227zM490.5 1374q-6.5 29 7.5 62q16 31 41.5 48t50.5 9q23 -8 30 -35.5t-8 -62.5q-14 -33 -40.5 -49.5t-51.5 -8.5q-23 8 -29.5 37zM701 1375q-9 28 5.5 58.5 t41 47t51.5 10.5q27 -8 34 -37t-7.5 -61.5t-39 -49t-49.5 -6.5q-27 10 -36 38z" />
<glyph unicode="&#xed;" horiz-adv-x="372" d="M-4 215q72 201 248 530t307 517q29 41 49 -2q53 -111 -61 -314q-354 -623 -502 -954q-12 -29 -33 -4q-66 70 -8 227zM596 1532q-4 14 4.5 20t22.5 2q78 -23 98 -100q18 -70 31 -188q2 -18 -4.5 -24.5t-18.5 -2.5q-47 12 -76 82q-8 23 -17 55.5t-20.5 79.5t-19.5 76z" />
<glyph unicode="&#xee;" horiz-adv-x="1099" d="M82 367q0 156 62.5 311.5t157.5 271t199.5 198.5t194.5 116q181 61 279 -41q121 -53 156.5 -192.5t1 -298.5t-114.5 -306q-137 -252 -321.5 -383t-381.5 -59q-233 86 -233 383zM229.5 200.5q20.5 -110.5 89.5 -139.5q104 -45 264 74t285 348q88 162 124 318.5t17.5 254 t-75.5 118.5q-84 31 -251 -81t-302 -321q-94 -147 -133 -304t-18.5 -267.5zM842 1352q-25 12 6 30q139 80 205 103q75 26 145 -21q12 -6 12 -16t-14 -16q-29 -10 -83 -32t-97 -37t-66 -22q-59 -16 -108 11z" />
<glyph unicode="&#xef;" horiz-adv-x="1099" d="M82 367q0 156 62.5 311.5t157.5 271t199.5 198.5t194.5 116q181 61 279 -41q121 -53 156.5 -192.5t1 -298.5t-114.5 -306q-137 -252 -321.5 -383t-381.5 -59q-233 86 -233 383zM229.5 200.5q20.5 -110.5 89.5 -139.5q104 -45 264 74t285 348q88 162 124 318.5t17.5 254 t-75.5 118.5q-84 31 -251 -81t-302 -321q-94 -147 -133 -304t-18.5 -267.5zM631 1329q0 10 10 19q18 12 68.5 50t95.5 68.5t74 46.5q14 8 26 9q25 2 41 -29q33 -59 84 -143q14 -23 -12 -31q-57 -12 -109 39q-8 8 -39 49q-82 -53 -120 -72q-68 -31 -107 -18q-12 2 -12 12z " />
<glyph unicode="&#xf0;" horiz-adv-x="1236" d="M-150.5 -510q3.5 37 19.5 80q92 250 450 371q10 23 31 67.5t31 69.5q-100 -104 -207 -105q-92 0 -135 74t-23.5 192.5t99.5 237.5q113 168 228.5 249t201.5 81q59 0 91 -40t32 -99q31 57 69 116q25 39 49 13q27 -31 28 -88.5t-34 -137.5q-104 -211 -270 -563 q252 125 383 305q162 332 244 453q14 20 24 23.5t25 -11.5q25 -27 25.5 -87t-31.5 -138q-20 -45 -125 -252t-154 -317q242 127 371 323q25 29 37 -2q6 -12 -3.5 -48t-29.5 -73q-55 -96 -152.5 -158.5t-257.5 -125.5q-156 -369 -233 -494q-88 -143 -174 -190q-72 -39 -123 39 q-80 115 -37 245q84 262 418 410q6 16 78 182q-111 -88 -324 -166q-59 -129 -102 -215t-104.5 -189.5t-123 -166t-123.5 -84.5q-72 -25 -114 45q-18 29 -29.5 51.5t-20 54t-5 68.5zM-58 -560q-1 -36 5 -54q14 -20 66.5 35t127 174t144.5 264q-78 -41 -143.5 -99.5 t-103.5 -115t-66.5 -112.5t-29.5 -92zM152.5 91q7.5 -52 48.5 -52q55 -2 129.5 81t158.5 226q63 109 93 190.5t28 122.5t-30 43q-51 4 -148.5 -85t-179.5 -222q-53 -84 -80 -168t-19.5 -136zM379 -672q10 -14 56 43.5t116 181.5t127 267q-115 -76 -193.5 -187.5 t-101.5 -194.5t-4 -110zM1197 917.5q3 40.5 30 67.5q25 25 61.5 11.5t54.5 -56.5q33 -82 -12 -135q-18 -23 -56 -13.5t-58 44.5q-23 41 -20 81.5z" />
<glyph unicode="&#xf1;" horiz-adv-x="1099" d="M82 367q0 156 62.5 311.5t157.5 271t199.5 198.5t194.5 116q181 61 279 -41q121 -53 156.5 -192.5t1 -298.5t-114.5 -306q-137 -252 -321.5 -383t-381.5 -59q-233 86 -233 383zM229.5 200.5q20.5 -110.5 89.5 -139.5q104 -45 264 74t285 348q88 162 124 318.5t17.5 254 t-75.5 118.5q-84 31 -251 -81t-302 -321q-94 -147 -133 -304t-18.5 -267.5zM782 1470q-27 21 6 31q82 23 148 -26q55 -39 156 -150q18 -23 -9 -29q-45 -10 -104 21q-20 12 -53 37.5t-77 62.5t-67 53z" />
<glyph unicode="&#xf2;" horiz-adv-x="925" d="M16 344q72 287 476 899q25 37 49 -2q59 -94 -39 -285q-27 -53 -118 -208.5t-154.5 -283.5t-86.5 -224q-41 -174 41 -205q90 -35 205 77.5t227 329.5q256 500 449 803q23 39 49 -2q49 -86 -27 -254q-61 -137 -214.5 -412.5t-247.5 -406.5q-104 -145 -231 -192.5t-238 -2.5 q-209 86 -140 369zM675 1306.5q1 10.5 15 18.5q147 78 205 98q69 25 147 -16q12 -6 11.5 -17.5t-15.5 -17.5q-29 -10 -82 -31.5t-96 -37t-67 -19.5q-68 -12 -107 6q-12 6 -11 16.5z" />
<glyph unicode="&#xf3;" horiz-adv-x="925" d="M16 344q72 287 476 899q25 37 49 -2q59 -94 -39 -285q-27 -53 -118 -208.5t-154.5 -283.5t-86.5 -224q-41 -174 41 -205q90 -35 205 77.5t227 329.5q256 500 449 803q23 39 49 -2q49 -86 -27 -254q-61 -137 -214.5 -412.5t-247.5 -406.5q-104 -145 -231 -192.5t-238 -2.5 q-209 86 -140 369zM628 1312.5q-1 8.5 13 18.5q16 12 66.5 49t95.5 70t76 49q10 6 22 6q25 4 43 -30q59 -104 86 -144q14 -20 -14 -26q-59 -12 -109 36q-8 9 -39 50q-25 -16 -123 -72q-59 -33 -104 -19q-12 4 -13 12.5z" />
<glyph unicode="&#xf4;" horiz-adv-x="925" d="M16 344q72 287 476 899q25 37 49 -2q59 -94 -39 -285q-27 -53 -118 -208.5t-154.5 -283.5t-86.5 -224q-41 -174 41 -205q90 -35 205 77.5t227 329.5q256 500 449 803q23 39 49 -2q49 -86 -27 -254q-61 -137 -214.5 -412.5t-247.5 -406.5q-104 -145 -231 -192.5t-238 -2.5 q-209 86 -140 369zM599 1454q3 10 17 14q78 25 146 -18q47 -29 164 -141q20 -20 -6 -31q-45 -14 -105 16q-29 14 -106.5 69.5t-100.5 70.5q-12 10 -9 20z" />
<glyph unicode="&#xf5;" d="M-7.5 56q-35.5 87 11.5 212q37 104 119 257t143 241q27 37 49 12q27 -29 29 -86t-31 -137q-16 -33 -81.5 -153.5t-90.5 -178.5q-37 -90 -32.5 -144t53.5 -50q66 2 141.5 85t124.5 195q16 31 33 0q25 -47 -15 -127q-45 -94 -131 -153.5t-174 -59.5q-113 0 -148.5 87z" />
<glyph unicode="&#xf6;" horiz-adv-x="403" d="M12 1329q-29 10 0 31q188 139 238 168q4 4 22 8q27 0 43 -31q41 -78 82 -143q16 -25 -12 -31q-57 -14 -106 39q-21 20 -41 51q-78 -55 -121 -75q-61 -29 -105 -17z" />
<glyph unicode="&#xf7;" horiz-adv-x="473" d="M0 1372q10 35 45 64.5t80 33.5q39 4 102.5 -15t104.5 -27.5t112 16.5q16 8 24.5 0t0.5 -27q-33 -80 -109 -92q-55 -12 -169.5 21.5t-170.5 7.5q-14 -6 -19 -1t-1 19z" />
<glyph unicode="&#xf8;" horiz-adv-x="1531" d="M11.5 286.5q11.5 116.5 84.5 245.5q63 113 150.5 187t175.5 80q80 6 137 -70q10 -14 36 -39.5t37 -41t20.5 -53.5t4.5 -91q0 -4 -1 -15.5t-1 -17.5q92 4 182.5 87t186.5 226q27 39 53 2q68 -96 -39 -272q-121 -199 -157 -301q-61 -170 6 -176q104 -8 291 303 q39 68 123.5 226.5t123.5 217.5q27 39 50 11q27 -29 27.5 -87.5t-34.5 -138.5q-186 -367 -274 -563q217 113 362 313q6 8 13.5 11.5t13.5 -1t8 -14.5q10 -43 -39 -118q-94 -154 -391 -273q-246 -600 -430 -672q-68 -27 -117 41q-84 117 -41 254q76 246 437 390q6 16 19 45.5 t23.5 54t18.5 47.5q-115 -123 -221 -113q-70 6 -102.5 53.5t-30.5 109t26 134.5q27 78 91 203q-88 -57 -189 -51q-37 -143 -127 -272.5t-196 -161.5q-156 -51 -259 86q-63 98 -51.5 214.5zM133 218q-18 -120 23 -150q43 -39 124.5 18t155.5 190q49 91 76 177q-55 31 -93 84 t-40 110q-88 -70 -162 -194q-66 -115 -84 -235zM477 643q-12 -84 49 -139q18 90 13 143q-4 33 -17.5 43t-27 -3t-17.5 -44zM655 -635q14 -18 65.5 40t124.5 181.5t132 266.5q-123 -72 -208 -182.5t-109.5 -194.5t-4.5 -111z" />
<glyph unicode="&#xf9;" horiz-adv-x="403" d="M12 1329q-29 10 0 31q188 139 238 168q4 4 22 8q27 0 43 -31q41 -78 82 -143q16 -25 -12 -31q-57 -14 -106 39q-21 20 -41 51q-78 -55 -121 -75q-61 -29 -105 -17z" />
<glyph unicode="&#xfa;" horiz-adv-x="1423" d="M6.5 246q20.5 119 99.5 239q111 168 227 249t204 81q61 0 93 -44t27 -105q45 88 74 122q31 39 51 15q27 -31 29 -88.5t-31 -136.5q-20 -41 -102 -178.5t-109 -194.5q-35 -72 -34.5 -124t43.5 -50q118 6 413 274q-39 424 -49 473q-8 41 41 31q115 -25 133 -201 q6 -53 14 -168q195 199 308 355q12 18 27.5 16t15.5 -27q-4 -55 -84 -170q-82 -117 -258 -282q10 -127 18 -182q16 -111 62 -111q51 -2 118.5 84t112.5 190q6 14 19.5 13.5t15.5 -15.5q14 -72 -25 -139q-113 -199 -282 -203q-80 -2 -123 53.5t-56 178.5q0 4 -2 6 q-283 -238 -432 -238q-72 0 -111.5 44t-37.5 118q-121 -152 -250 -151q-92 0 -136 73.5t-23.5 192.5zM142.5 97.5q7.5 -52.5 45.5 -52.5q59 0 136 83t157 224q156 274 111 340q-8 12 -25 15q-49 4 -146 -84t-179 -220q-53 -86 -80 -169.5t-19.5 -136z" />
<glyph unicode="&#xfb;" horiz-adv-x="215" d="M16 1481q23 47 65 61.5t89 -18.5q80 -68 23 -170q-23 -39 -60 -54.5t-78 9.5q-90 66 -39 172zM74 1348q8 -6 27.5 5t33.5 38q16 29 20 61.5t-8 40.5q-14 8 -34.5 -7.5t-34.5 -43.5q-35 -72 -4 -94z" />
<glyph unicode="&#xfc;" horiz-adv-x="1226" d="M10 233.5q-2 116.5 60 251.5q92 182 226 269.5t216 40.5q82 -49 119 -103q29 -35 10.5 -117.5t-78.5 -158.5q-51 -66 -108.5 -98.5t-128 -25.5t-140.5 62q-49 -143 -13 -235t142 -84q201 16 482 264q-23 334 -52 477q-6 18 6.5 25.5t32.5 3.5q113 -27 134 -203 q4 -31 9 -91t7 -83q158 160 313 367q12 18 27.5 16t13.5 -27q-8 -61 -88 -172q-96 -133 -258 -286q14 -168 16 -176q14 -111 64 -111q51 -2 117.5 84t111.5 190q8 14 20.5 12.5t16.5 -14.5q16 -59 -26 -139q-53 -96 -128 -148.5t-153 -54.5q-82 -2 -125 53.5t-51 178.5v4 q-276 -221 -498 -232q-133 -6 -214 69t-83 191.5zM205 401q43 -18 72.5 -22t64.5 19.5t56.5 46t47.5 57.5q49 66 76 131t6 82q-23 18 -78 -12.5t-120.5 -103.5t-108.5 -163q-12 -25 -16 -35z" />
<glyph unicode="&#xfd;" horiz-adv-x="991" d="M-5.5 53q-35.5 86 7.5 213q33 106 124 270t140 230q29 39 49 12q27 -27 30 -86t-28 -139q-18 -43 -88.5 -164t-93.5 -174q-37 -86 -30.5 -137t57.5 -49q115 6 395 264q-25 356 -47 473q-4 20 7 27.5t34 3.5q111 -20 129 -203q6 -57 14 -166q174 176 303 356 q14 18 28.5 17.5t12.5 -25.5q-2 -63 -75 -164q-86 -115 -261 -286q8 -129 15 -181q12 -104 61 -108q49 -2 118 83t118 189q6 14 17 13.5t16 -15.5q18 -63 -25 -137q-55 -96 -131 -149.5t-156 -53.5q-82 0 -123 54.5t-49 177.5q-268 -231 -420 -232q-113 0 -148.5 86z M348 836q-51 92 10 149q27 25 63 10.5t54 -55.5q14 -41 10 -78t-22 -57q-20 -25 -56 -16.5t-59 47.5z" />
<glyph unicode="&#xfe;" horiz-adv-x="1277" d="M11.5 292q11.5 118 84.5 247q61 109 149.5 183.5t176.5 82.5q47 2 77.5 -13.5t61.5 -56.5q10 -14 35 -39.5t37 -42t20.5 -54.5t3.5 -89q-2 -8 -2 -23.5t-2 -23.5q6 0 19.5 2t21.5 2q22 -1 6 -21q-20 -23 -55 -26q-35 -139 -125 -267t-198 -165q-150 -49 -259 90 q-63 96 -51.5 214zM135.5 222q-20.5 -120 20.5 -152q45 -37 128 20t154 193q45 83 72 163q-18 8 -39 25q-37 27 -64.5 77t-29.5 103q-96 -82 -158 -192q-63 -117 -83.5 -237zM479 647q-16 -88 45 -145q25 98 17 151q-4 31 -17.5 40t-27 -4t-17.5 -42zM524 -14q4 82 125 211 q51 55 185 165q-49 334 -80 412q-8 18 2 25.5t35 5.5q115 -6 145 -154q10 -49 31 -180q207 172 309 309q10 14 20.5 18.5t17.5 -1.5t7 -25q0 -72 -113 -205q-16 -18 -43.5 -43.5t-49 -43t-68 -54.5t-68.5 -55q14 -88 37 -224q20 -113 65 -112q51 -2 110.5 79t113.5 195 q8 14 18 13t14 -13q18 -49 -22 -129q-47 -94 -120 -151.5t-148 -59.5q-82 -4 -127.5 50.5t-63.5 179.5q0 25 -6 61q-182 -156 -283 -278q-8 -10 -18 -15.5t-17.5 -1.5t-7.5 21z" />
<glyph unicode="&#xff;" horiz-adv-x="1376" d="M3.5 75.5q-23.5 94.5 19.5 194.5q88 248 282 518q25 33 51 3q68 -100 -39 -275q-115 -188 -159 -299q-31 -76 -28 -124t38 -52q109 -8 303 311q63 102 140 246.5t110 189.5q27 39 51 13q27 -31 29 -89.5t-31 -138.5q-16 -35 -97 -178t-110 -207q-14 -33 -22.5 -60.5 t-9.5 -50t10.5 -34.5t31.5 -12q117 2 416 272q-39 426 -49 475q-4 18 6 25.5t31 5.5q119 -29 137 -203q6 -53 14 -168q195 199 308 355q12 18 27.5 17t13.5 -28q-2 -49 -84 -168q-70 -102 -256 -282q8 -137 14 -185q14 -111 66 -110q51 -2 117.5 84t111.5 190 q8 14 21.5 13.5t15.5 -15.5q14 -68 -27 -139q-53 -94 -127 -145.5t-153 -55.5q-82 -4 -124 50.5t-55 179.5v8q-291 -238 -436 -238q-80 0 -122 48.5t-33 132.5q-143 -186 -279 -177q-100 8 -123.5 102.5z" />
<glyph unicode="&#x152;" horiz-adv-x="833" d="M6.5 239.5q20.5 118.5 102.5 239.5q117 170 230.5 252t199.5 82q63 0 96 -42t29 -105q45 84 73 125q29 41 49 12q27 -31 29 -89.5t-31 -138.5q-18 -39 -94 -166.5t-102 -187.5q-27 -57 -35 -102t4 -72t47 -24q59 2 135 86t133 198q18 33 33 2q20 -45 -18 -127 q-43 -90 -128 -156.5t-167 -62.5t-125 49t-43 119q-125 -160 -256 -160q-94 0 -138 75t-23.5 193.5zM145.5 92q6.5 -53 44.5 -53q59 -2 135 81t160 228q61 109 92 191t29 122.5t-33 45.5q-51 4 -148 -86.5t-179 -223.5q-53 -86 -80 -169t-20.5 -136zM571.5 962 q-8.5 50 14.5 91q25 45 65.5 60.5t87.5 -17.5q80 -66 21 -174q-20 -39 -59 -52.5t-78 11.5q-43 31 -51.5 81zM643 920q8 -6 27.5 5t34.5 38q16 31 20 60.5t-8 39.5q-14 8 -36 -7.5t-34 -41.5q-33 -74 -4 -94z" />
<glyph unicode="&#x153;" horiz-adv-x="827" d="M-25 134.5q2 62.5 27 135.5q80 238 283 523q25 35 53 2q70 -104 -39 -277q-92 -147 -160 -301q-33 -76 -28.5 -125t39.5 -53q102 -8 303 315q63 102 142 248t112 191q29 41 51 12q27 -31 28.5 -90.5t-30.5 -139.5q-18 -39 -93 -165.5t-101.5 -184t-33 -103.5t9 -71.5 t52.5 -23.5q117 6 270 282q8 14 19.5 15.5t17.5 -13.5q23 -45 -18 -129q-47 -90 -133.5 -154.5t-174.5 -64.5q-96 0 -139 55.5t-31 147.5q-152 -203 -295 -193q-70 4 -101.5 51.5t-29.5 110zM465 836q-27 12 2 32q137 94 195 119q79 33 145 -6q29 -18 0 -33 q-201 -100 -236 -110q-66 -20 -106 -2z" />
<glyph unicode="&#x178;" horiz-adv-x="827" d="M-25 134.5q2 62.5 27 135.5q80 238 283 523q25 35 53 2q70 -104 -39 -277q-92 -147 -160 -301q-33 -76 -28.5 -125t39.5 -53q102 -8 303 315q63 102 142 248t112 191q29 41 51 12q27 -31 28.5 -90.5t-30.5 -139.5q-18 -39 -93 -165.5t-101.5 -184t-33 -103.5t9 -71.5 t52.5 -23.5q117 6 270 282q8 14 19.5 15.5t17.5 -13.5q23 -45 -18 -129q-47 -90 -133.5 -154.5t-174.5 -64.5q-96 0 -139 55.5t-31 147.5q-152 -203 -295 -193q-70 4 -101.5 51.5t-29.5 110zM405.5 885.5q-7.5 29.5 6.5 60.5q14 33 40.5 48.5t51.5 6.5q27 -8 34 -35.5 t-8 -60.5q-14 -31 -41.5 -48t-50.5 -9q-25 8 -32.5 37.5zM627 885.5q-8 29.5 8 60.5q16 33 43 51.5t49 8.5q25 -10 33 -39t-6.5 -59.5t-41 -48t-50.5 -11.5q-27 8 -35 37.5z" />
<glyph unicode="&#x2c6;" horiz-adv-x="833" d="M6.5 239.5q20.5 118.5 102.5 239.5q117 170 230.5 252t199.5 82q63 0 96 -42t29 -105q45 84 73 125q29 41 49 12q27 -31 29 -89.5t-31 -138.5q-18 -39 -94 -166.5t-102 -187.5q-27 -57 -35 -102t4 -72t47 -24q59 2 135 86t133 198q18 33 33 2q20 -45 -18 -127 q-43 -90 -128 -156.5t-167 -62.5t-125 49t-43 119q-125 -160 -256 -160q-94 0 -138 75t-23.5 193.5zM145.5 92q6.5 -53 44.5 -53q59 -2 135 81t160 228q61 109 92 191t29 122.5t-33 45.5q-51 4 -148 -86.5t-179 -223.5q-53 -86 -80 -169t-20.5 -136zM379 1004q-27 16 2 30 q74 39 145 0q72 -37 181 -125q23 -18 -2 -28q-53 -20 -107 2q-25 10 -219 121z" />
<glyph unicode="&#x2dc;" horiz-adv-x="679" d="M11.5 285.5q11.5 117.5 84.5 246.5q61 109 149.5 184t176.5 83q47 2 77.5 -13.5t61.5 -56.5q10 -14 35 -39.5t37 -42t20.5 -54.5t3.5 -89q-2 -8 -2 -23.5t-2 -23.5q6 0 19.5 2t21.5 2q22 -1 6 -21q-20 -23 -55 -26q-35 -139 -125 -267.5t-198 -164.5q-150 -49 -259 90 q-63 96 -51.5 213.5zM135.5 216q-20.5 -120 20.5 -153q45 -37 128 20.5t154 192.5q45 84 72 164q-18 8 -39 25q-37 27 -64.5 77t-29.5 103q-96 -82 -158 -192q-63 -117 -83.5 -237zM385 998.5q2 9.5 14 13.5q82 25 148 -23q59 -39 164 -143q25 -25 -9 -31q-47 -10 -104 19 q-27 12 -203 145q-12 10 -10 19.5zM479 641q-16 -88 45 -145q25 98 17 151q-4 31 -17.5 40t-27 -4t-17.5 -42z" />
<glyph unicode="&#x2000;" horiz-adv-x="777" />
<glyph unicode="&#x2001;" horiz-adv-x="1555" />
<glyph unicode="&#x2002;" horiz-adv-x="777" />
<glyph unicode="&#x2003;" horiz-adv-x="1555" />
<glyph unicode="&#x2004;" horiz-adv-x="518" />
<glyph unicode="&#x2005;" horiz-adv-x="388" />
<glyph unicode="&#x2006;" horiz-adv-x="259" />
<glyph unicode="&#x2007;" horiz-adv-x="259" />
<glyph unicode="&#x2008;" horiz-adv-x="194" />
<glyph unicode="&#x2009;" horiz-adv-x="311" />
<glyph unicode="&#x200a;" horiz-adv-x="86" />
<glyph unicode="&#x2010;" horiz-adv-x="665" d="M92 516q-4 14 0 22.5t21 6.5q61 -4 191 6t165 10q131 0 154 -106q4 -14 -1.5 -22.5t-21.5 -6.5q-84 6 -203.5 -7t-154.5 -11q-129 6 -150 108z" />
<glyph unicode="&#x2011;" horiz-adv-x="665" d="M92 516q-4 14 0 22.5t21 6.5q61 -4 191 6t165 10q131 0 154 -106q4 -14 -1.5 -22.5t-21.5 -6.5q-84 6 -203.5 -7t-154.5 -11q-129 6 -150 108z" />
<glyph unicode="&#x2012;" horiz-adv-x="665" d="M92 516q-4 14 0 22.5t21 6.5q61 -4 191 6t165 10q131 0 154 -106q4 -14 -1.5 -22.5t-21.5 -6.5q-84 6 -203.5 -7t-154.5 -11q-129 6 -150 108z" />
<glyph unicode="&#x2013;" horiz-adv-x="786" d="M-49 193q31 94 129 275t199 329q23 35 43 0q43 -72 6 -195q78 84 165 145.5t134 55.5q55 -8 83.5 -72.5t-3.5 -144.5q-18 -39 -91 -165t-100 -183q-27 -59 -32 -108.5t11.5 -77t53.5 -25.5q113 6 262 282q16 31 35 2q25 -39 -19 -129q-43 -88 -130 -153.5t-173 -65.5 q-127 0 -166 86t11 219q29 84 91 192.5t99 172t21 69.5q-12 4 -49 -13t-99.5 -65.5t-122.5 -113.5q-57 -61 -114.5 -156.5t-91 -165t-93.5 -198.5q-14 -33 -39 -8q-68 68 -20 211zM365 905q10 31 44.5 59.5t75.5 36.5q33 6 137.5 -16t151.5 12q14 6 20.5 1t0.5 -21 q-29 -72 -103 -90q-51 -12 -159.5 9.5t-147.5 -7.5q-14 -8 -19 -2t-1 18z" />
<glyph unicode="&#x2014;" horiz-adv-x="679" d="M11.5 285.5q11.5 117.5 84.5 246.5q61 109 149.5 184t176.5 83q47 2 77.5 -13.5t61.5 -56.5q10 -14 35 -39.5t37 -42t20.5 -54.5t3.5 -89q-2 -8 -2 -23.5t-2 -23.5q6 0 19.5 2t21.5 2q22 -1 6 -21q-20 -23 -55 -26q-35 -139 -125 -267.5t-198 -164.5q-150 -49 -259 90 q-63 96 -51.5 213.5zM135.5 216q-20.5 -120 20.5 -153q45 -37 128 20.5t154 192.5q45 84 72 164q-18 8 -39 25q-37 27 -64.5 77t-29.5 103q-96 -82 -158 -192q-63 -117 -83.5 -237zM447.5 873.5q-1.5 9.5 11.5 17.5q133 88 194 117q80 37 150 -4q29 -18 0 -33 q-203 -102 -236 -111q-76 -20 -108 0q-10 4 -11.5 13.5zM479 641q-16 -88 45 -145q25 98 17 151q-4 31 -17.5 40t-27 -4t-17.5 -42z" />
<glyph unicode="&#x2018;" horiz-adv-x="655" d="M30.5 125q-63.5 160 39.5 358q94 188 228 273.5t216 38.5q78 -47 121 -107q31 -33 13.5 -119t-79.5 -159q-53 -63 -111.5 -96t-129 -26t-140.5 62q-47 -141 -19 -230t112 -93q115 -6 221 81t186 209q20 31 35 -2q8 -14 -1 -52t-34 -75q-66 -96 -175.5 -157.5 t-225.5 -63.5q-193 -2 -256.5 158zM207 395q113 -70 244 103q51 66 76.5 132t4.5 83q-23 18 -77 -12.5t-120.5 -104.5t-111.5 -166q-12 -25 -16 -35zM333 907q-7 29 7 62q14 31 42 48t50 9q25 -8 32 -36.5t-7.5 -61.5t-42 -51.5t-49.5 -8.5q-25 10 -32 39zM558 908 q-7 28 7 61q39 76 88 59q27 -8 34 -37.5t-7 -62.5q-14 -31 -41 -47.5t-51 -8.5q-23 8 -30 36z" />
<glyph unicode="&#x2019;" d="M-7.5 56q-35.5 87 11.5 212q37 104 119 257t143 241q27 37 49 12q27 -29 29 -86t-31 -137q-16 -33 -81.5 -153.5t-90.5 -178.5q-37 -90 -32.5 -144t53.5 -50q66 2 141.5 85t124.5 195q16 31 33 0q25 -47 -15 -127q-45 -94 -131 -153.5t-174 -59.5q-113 0 -148.5 87z M334 844q-27 10 0 30q143 102 192 127q70 35 146 0q12 -6 14 -17t-10 -17q-23 -10 -114 -59.5t-120 -59.5q-68 -20 -108 -4z" />
<glyph unicode="&#x201a;" horiz-adv-x="946" d="M68 367q-2 154 55 308t148 269t191.5 198t190.5 118q186 72 277 -7q84 -72 108 -149q27 -86 -18 -180q-23 -47 -82 -203q-12 -35 -45 -12q-90 59 -49 196q8 27 23.5 65t25.5 65.5t18.5 57t7.5 51t-16 36.5q-29 33 -124 -7t-219 -150t-210 -253q-86 -141 -116.5 -289.5 t-12 -250t69.5 -144.5q98 -80 242.5 14.5t261.5 321.5q8 16 21 16t22 -20q35 -92 -24.5 -192.5t-141.5 -159.5q-158 -113 -338 -76q-20 -41 -25 -51q51 -2 78 -56q27 -55 4 -94q-37 -61 -110 -61q-59 0 -99 53q-10 14 -5 21.5t20 7.5q43 -2 79.5 8t52 22.5t11.5 20.5 q-8 14 -66 6q-39 -6 -61 20q-25 29 -10 58q12 24 45 75q-2 0 -2 1.5t-2 1.5q-74 39 -124 131t-52 213z" />
<glyph unicode="&#x201c;" d="M-7.5 56q-35.5 87 11.5 212q37 104 119 257t143 241q27 37 49 12q27 -29 29 -86t-31 -137q-16 -33 -81.5 -153.5t-90.5 -178.5q-37 -90 -32.5 -144t53.5 -50q66 2 141.5 85t124.5 195q16 31 33 0q25 -47 -15 -127q-45 -94 -131 -153.5t-174 -59.5q-113 0 -148.5 87z M236 1006q-13 22 14 26q82 8 129 -65q29 -45 90 -162q10 -18 -16 -25q-41 -6 -91 47q-53 59 -126 179z" />
<glyph unicode="&#x201d;" d="M-7.5 56q-35.5 87 11.5 212q37 104 119 257t143 241q27 37 49 12q27 -29 29 -86t-31 -137q-16 -33 -81.5 -153.5t-90.5 -178.5q-37 -90 -32.5 -144t53.5 -50q66 2 141.5 85t124.5 195q16 31 33 0q25 -47 -15 -127q-45 -94 -131 -153.5t-174 -59.5q-113 0 -148.5 87z M162 836q-29 8 0 30q217 156 237 166q16 8 27 8q25 2 41 -28q35 -70 84 -144q8 -10 3 -19t-15 -11q-57 -12 -111 39q-27 33 -39 49q-55 -35 -123 -72q-61 -31 -104 -18z" />
<glyph unicode="&#x201e;" horiz-adv-x="940" d="M4 209q131 362 531 1034q23 39 53 19q57 -41 71.5 -94.5t-2.5 -159.5q-43 -260 -67 -738q100 227 253.5 511t274.5 470q25 37 47 -4q51 -104 -63 -297q-96 -160 -256 -465t-246 -499q-12 -29 -41 -13q-47 25 -69.5 71t-30.5 142q-20 255 35 693q-346 -594 -445 -891 q-10 -35 -35 -8q-68 76 -10 229zM654.5 1351q-5.5 5 0.5 19q12 29 47 53.5t80 22.5q31 -2 129.5 -37t167.5 -14q16 4 22.5 -3.5t-1.5 -23.5q-37 -66 -111 -72q-53 -4 -158.5 34t-158.5 20q-12 -4 -17.5 1z" />
<glyph unicode="&#x2022;" d="M-7.5 56q-35.5 87 11.5 212q37 104 119 257t143 241q27 37 49 12q27 -29 29 -86t-31 -137q-16 -33 -81.5 -153.5t-90.5 -178.5q-37 -90 -32.5 -144t53.5 -50q66 2 141.5 85t124.5 195q16 31 33 0q25 -47 -15 -127q-45 -94 -131 -153.5t-174 -59.5q-113 0 -148.5 87z M228.5 905.5q-7.5 28.5 4.5 61.5q12 31 40 47t53 10q27 -8 34 -37t-8 -61q-12 -31 -39.5 -48.5t-52 -9t-32 37zM429 904q-7 30 7 63q16 31 42 48t50 9q23 -8 30 -35.5t-7 -62.5q-12 -31 -39 -48.5t-53 -9.5q-23 6 -30 36z" />
<glyph unicode="&#x2026;" horiz-adv-x="1099" d="M82 367q0 156 62.5 311.5t157.5 271t199.5 198.5t194.5 116q181 61 279 -41q121 -53 156.5 -192.5t1 -298.5t-114.5 -306q-137 -252 -321.5 -383t-381.5 -59q-233 86 -233 383zM229.5 200.5q20.5 -110.5 89.5 -139.5q104 -45 264 74t285 348q88 162 124 318.5t17.5 254 t-75.5 118.5q-84 31 -251 -81t-302 -321q-94 -147 -133 -304t-18.5 -267.5zM673 1368q-7 29 7 62q14 31 41 47t51.5 8t31.5 -36t-7 -60q-14 -31 -42 -48.5t-50 -9.5q-25 8 -32 37zM908 1372q-7 29 7 62q14 31 41 48t52 9q23 -8 29.5 -37t-7.5 -61q-12 -31 -39.5 -50.5 t-50.5 -9.5q-25 10 -32 39z" />
<glyph unicode="&#x202f;" horiz-adv-x="311" />
<glyph unicode="&#x2039;" horiz-adv-x="833" d="M6.5 239.5q20.5 118.5 102.5 239.5q117 170 230.5 252t199.5 82q63 0 96 -42t29 -105q45 84 73 125q29 41 49 12q27 -31 29 -89.5t-31 -138.5q-18 -39 -94 -166.5t-102 -187.5q-27 -57 -35 -102t4 -72t47 -24q59 2 135 86t133 198q18 33 33 2q20 -45 -18 -127 q-43 -90 -128 -156.5t-167 -62.5t-125 49t-43 119q-125 -160 -256 -160q-94 0 -138 75t-23.5 193.5zM145.5 92q6.5 -53 44.5 -53q59 -2 135 81t160 228q61 109 92 191t29 122.5t-33 45.5q-51 4 -148 -86.5t-179 -223.5q-53 -86 -80 -169t-20.5 -136zM387 905q10 31 45 59.5 t76 36.5q33 6 137.5 -16t151.5 12q14 6 20 1t0 -21q-29 -72 -102 -90q-51 -12 -160 9.5t-147 -7.5q-14 -8 -19.5 -2t-1.5 18z" />
<glyph unicode="&#x203a;" horiz-adv-x="679" d="M11.5 285.5q11.5 117.5 84.5 246.5q61 109 149.5 184t176.5 83q47 2 77.5 -13.5t61.5 -56.5q10 -14 35 -39.5t37 -42t20.5 -54.5t3.5 -89q-2 -8 -2 -23.5t-2 -23.5q6 0 19.5 2t21.5 2q22 -1 6 -21q-20 -23 -55 -26q-35 -139 -125 -267.5t-198 -164.5q-150 -49 -259 90 q-63 96 -51.5 213.5zM135.5 216q-20.5 -120 20.5 -153q45 -37 128 20.5t154 192.5q45 84 72 164q-18 8 -39 25q-37 27 -64.5 77t-29.5 103q-96 -82 -158 -192q-63 -117 -83.5 -237zM303 879q10 31 44 58.5t77 35.5q33 6 137.5 -14.5t151.5 12.5q14 6 20 0t0 -23 q-29 -68 -102 -88q-53 -14 -161 8.5t-146 -4.5q-14 -8 -19.5 -3.5t-1.5 18.5zM479 641q-16 -88 45 -145q25 98 17 151q-4 31 -17.5 40t-27 -4t-17.5 -42z" />
<glyph unicode="&#x205f;" horiz-adv-x="388" />
<glyph unicode="&#x20ac;" horiz-adv-x="905" d="M36 411.5q5 6.5 27 4.5q55 -8 93 -10q135 236 322.5 486.5t338.5 375.5q45 37 74 -2q31 -43 47 -84q29 -66 0 -150q-98 -297 -150 -596q78 -27 93 -104q6 -29 -23 -19q-37 10 -88 13q-25 -190 -31 -328q0 -33 -30 -18q-74 33 -76 186q0 74 8 156q-41 -2 -196.5 -18.5 t-211.5 -14.5q-94 -162 -155 -295q-6 -14 -17.5 -14t-19.5 10q-45 61 10 209q23 57 55 116q-49 27 -67 70q-8 20 -3 26.5zM311 412q47 4 170 18t176 16q57 391 152 631q-254 -284 -498 -665zM726 1385.5q-7 29.5 7 60.5q16 33 43 51.5t49 7.5q25 -10 32 -38.5t-7 -59.5 t-41 -49.5t-51.5 -10t-31.5 38zM961 1389.5q-7 27.5 7.5 60.5t41 49.5t51 8t32 -37t-7.5 -61.5q-12 -31 -40.5 -47t-51.5 -8q-25 8 -32 35.5z" />
<glyph unicode="&#x2122;" horiz-adv-x="679" d="M11.5 285.5q11.5 117.5 84.5 246.5q61 109 149.5 184t176.5 83q47 2 77.5 -13.5t61.5 -56.5q10 -14 35 -39.5t37 -42t20.5 -54.5t3.5 -89q-2 -8 -2 -23.5t-2 -23.5q6 0 19.5 2t21.5 2q22 -1 6 -21q-20 -23 -55 -26q-35 -139 -125 -267.5t-198 -164.5q-150 -49 -259 90 q-63 96 -51.5 213.5zM135.5 216q-20.5 -120 20.5 -153q45 -37 128 20.5t154 192.5q45 84 72 164q-18 8 -39 25q-37 27 -64.5 77t-29.5 103q-96 -82 -158 -192q-63 -117 -83.5 -237zM252 849q0 9 10 17q2 2 101.5 74t138.5 94q6 4 24 8q23 0 41 -30q66 -113 84 -144 q16 -25 -12 -30q-57 -14 -107 39q-13 14 -38 51q-96 -61 -123 -74q-63 -31 -105 -18q-14 4 -14 13zM479 641q-16 -88 45 -145q25 98 17 151q-4 31 -17.5 40t-27 -4t-17.5 -42z" />
<glyph unicode="&#xe000;" horiz-adv-x="798" d="M0 0v799h799v-799h-799z" />
</font>
</defs>
</svg>
